<svg width="13" height="18" viewBox="0 0 13 18" fill="none" xmlns="http://www.w3.org/2000/svg">
<path d="M12.6426 5.70312C12.377 5.23828 11.8789 4.93945 11.3477 4.93945H8.19336L9.15625 2.05078C9.28906 1.58594 9.18945 1.12109 8.89062 0.722656C8.5918 0.357422 8.16016 0.125 7.69531 0.125H3.3457C2.58203 0.125 1.95117 0.722656 1.85156 1.38672L0.125 8.42578C0.0585938 8.89062 0.191406 9.32227 0.490234 9.6875C0.789062 10.0195 1.25391 10.2188 1.71875 10.2188H4.97266L3.81055 15.2656C3.71094 15.7305 3.81055 16.1953 4.07617 16.5605C4.375 16.9258 4.80664 17.125 5.27148 17.125C5.83594 17.125 6.33398 16.8594 6.56641 16.4277L12.6426 7.23047C12.9414 6.76562 12.9414 6.20117 12.6426 5.70312ZM5.4375 15.332L6.96484 8.625H1.68555L3.3457 1.71875H7.5957L6.00195 6.5332H11.2148L5.4375 15.332Z" fill="#3579DC"/>
</svg>
