<svg width="20" height="16" viewBox="0 0 20 16" fill="none" xmlns="http://www.w3.org/2000/svg">
<path d="M19.3633 7.35938L17.4375 5.76562V2.57812C17.4375 2.44531 17.3047 2.3125 17.1719 2.3125H16.1094C15.9434 2.3457 15.8438 2.44531 15.8438 2.57812V4.4707L11.1621 0.619141C10.8965 0.386719 10.3652 0.220703 10 0.220703C9.60156 0.220703 9.07031 0.386719 8.80469 0.619141L0.603516 7.35938C0.503906 7.45898 0.4375 7.625 0.4375 7.75781C0.4375 7.85742 0.470703 8.02344 0.537109 8.08984L0.902344 8.52148C0.96875 8.62109 1.16797 8.6875 1.30078 8.6875C1.40039 8.6875 1.56641 8.6543 1.63281 8.58789L2.5625 7.82422V14C2.5625 14.5977 3.02734 15.0625 3.625 15.0625H7.875C8.43945 15.0625 8.9043 14.5977 8.9375 14V10.5469H11.0625V14C11.0625 14.5977 11.5273 15.0625 12.125 15.0625H16.375C16.9395 15.0625 17.4043 14.5977 17.4375 14.0332V7.82422L18.334 8.58789C18.4004 8.6543 18.5664 8.7207 18.666 8.7207C18.7988 8.7207 18.998 8.62109 19.0977 8.52148L19.4297 8.08984C19.4961 8.02344 19.5625 7.85742 19.5625 7.75781C19.5625 7.625 19.4629 7.45898 19.3633 7.35938ZM15.8105 13.4688H12.6562V10.0156C12.623 9.45117 12.1582 8.98633 11.5938 8.95312H8.40625C7.80859 8.98633 7.34375 9.45117 7.34375 10.0156V13.4688H4.15625V6.5293L10 1.71484L15.8438 6.5293L15.8105 13.4688Z" fill="#8E97A4"/>
</svg>
