<svg width="17" height="17" viewBox="0 0 17 17" fill="none" xmlns="http://www.w3.org/2000/svg">
<path d="M11.7871 4.44141L7.00586 6.63281C6.80664 6.73242 6.57422 6.96484 6.47461 7.16406L4.2832 11.9453C4.05078 12.5098 4.61523 13.0742 5.17969 12.8418L9.96094 10.6504C10.1602 10.5508 10.3926 10.3184 10.4922 10.1191L12.6836 5.33789C12.916 4.77344 12.3516 4.20898 11.7871 4.44141ZM9.23047 9.38867C8.83203 9.82031 8.13477 9.82031 7.73633 9.38867C7.30469 8.99023 7.30469 8.29297 7.73633 7.89453C8.13477 7.46289 8.83203 7.46289 9.23047 7.89453C9.66211 8.29297 9.66211 8.99023 9.23047 9.38867ZM8.5 0.390625C3.95117 0.390625 0.265625 4.10938 0.265625 8.625C0.265625 13.1738 3.95117 16.8594 8.5 16.8594C13.0156 16.8594 16.7344 13.1738 16.7344 8.625C16.7344 4.10938 13.0156 0.390625 8.5 0.390625ZM8.5 15.2656C4.81445 15.2656 1.85938 12.3105 1.85938 8.625C1.85938 4.97266 4.81445 1.98438 8.5 1.98438C12.1523 1.98438 15.1406 4.97266 15.1406 8.625C15.1406 12.3105 12.1523 15.2656 8.5 15.2656Z" fill="#8E97A4"/>
</svg>
