<svg width="322" height="644" viewBox="0 0 322 644" fill="none" xmlns="http://www.w3.org/2000/svg">
<path fill-rule="evenodd" clip-rule="evenodd" d="M158.68 169.762C160.338 167.664 163.351 167.243 165.52 168.803L207.403 198.922C211.161 201.816 211.828 207.224 208.887 210.945C205.919 214.699 200.442 215.271 196.763 212.211L159.159 176.485C157.285 174.705 157.077 171.789 158.68 169.762Z" fill="#FFC999"/>
<path fill-rule="evenodd" clip-rule="evenodd" d="M158.46 161.854C158.46 161.854 166.283 166.808 165.22 172.164C164.258 177.015 159.304 176.638 159.304 176.638C159.304 176.638 154.32 177.044 149.029 175.337C145.543 174.213 139.131 171.403 139.475 169.492C139.922 167 146.993 170.603 147.853 168.974C148.733 167.302 147.327 166.45 144.768 163.459C143.169 161.589 140.858 160.376 139.804 158.533C137.745 154.93 147.344 153.443 158.46 161.854Z" fill="#FFC999"/>
<path d="M141.144 157.192C141.225 157.003 141.443 156.915 141.632 156.996C143.268 157.695 144.713 158.561 145.976 159.557C147.212 160.531 148.21 161.575 148.993 162.621C149.268 162.989 149.496 163.331 149.681 163.64L149.821 163.883C149.859 163.95 149.886 164.004 149.905 164.043C149.995 164.227 149.919 164.45 149.734 164.54C149.549 164.63 149.326 164.553 149.236 164.369L149.167 164.237C149.134 164.179 149.093 164.107 149.042 164.022C148.87 163.735 148.656 163.414 148.397 163.067C147.652 162.071 146.698 161.073 145.515 160.141C144.302 159.185 142.914 158.353 141.34 157.68C141.151 157.599 141.063 157.381 141.144 157.192Z" fill="#DD936F"/>
<path d="M144.887 156.801C144.962 156.61 145.178 156.515 145.369 156.59L145.545 156.663C145.594 156.685 145.651 156.71 145.714 156.738L145.814 156.784C146.161 156.943 146.546 157.136 146.96 157.365C148.142 158.016 149.324 158.817 150.428 159.776C151.276 160.513 152.044 161.315 152.714 162.186C152.839 162.349 152.809 162.583 152.646 162.708C152.483 162.833 152.249 162.803 152.124 162.64C151.486 161.81 150.751 161.043 149.94 160.338C148.878 159.416 147.739 158.644 146.601 158.016C146.282 157.841 145.983 157.688 145.706 157.555L145.503 157.46C145.307 157.37 145.169 157.311 145.098 157.283C144.906 157.208 144.812 156.992 144.887 156.801Z" fill="#DD936F"/>
<path d="M149.504 157.018C149.608 156.841 149.836 156.782 150.013 156.886C152.027 158.07 153.602 159.283 154.787 160.459C155.206 160.874 155.546 161.256 155.814 161.596L155.94 161.761C156.034 161.886 156.099 161.98 156.136 162.042C156.244 162.217 156.19 162.446 156.015 162.554C155.84 162.661 155.61 162.607 155.503 162.432L155.457 162.363C155.409 162.293 155.334 162.19 155.229 162.057C154.98 161.74 154.66 161.381 154.263 160.988C153.122 159.855 151.596 158.681 149.636 157.528C149.459 157.423 149.4 157.195 149.504 157.018Z" fill="#DD936F"/>
<path fill-rule="evenodd" clip-rule="evenodd" d="M135.629 239.734C148.569 246.864 156.227 237.622 156.227 237.622C156.227 237.622 167.317 237.269 169.429 229.171C177.175 228.116 179.491 218.477 174.473 210.292C178.899 202.802 170.728 195.991 170.728 195.991C174.473 186.798 168.345 178.286 163.238 173.859C157.449 150.366 144.171 153.431 144.171 153.431C138.808 146.28 127.571 153.941 120.761 163.475C120.761 163.475 111.143 165.603 113.867 174.881C108.76 178.286 112.164 183.053 112.164 183.053C112.164 183.053 100.418 194.714 107.057 204.163C98.8856 212.164 105.354 216.08 105.354 216.08C105.354 216.08 103.226 223.996 115.228 227.316C113.441 234.211 126.749 242.959 135.629 239.734Z" fill="#253368"/>
<path fill-rule="evenodd" clip-rule="evenodd" d="M159.06 183.253C157.742 186.097 154.854 187.834 152.605 186.791C150.355 185.747 149.603 182.596 150.922 179.752C152.241 176.908 155.135 175.449 157.384 176.492C159.632 177.536 160.379 180.409 159.06 183.253Z" fill="#FFC999"/>
<path fill-rule="evenodd" clip-rule="evenodd" d="M122.073 183.734C123.393 186.578 126.281 188.315 128.53 187.271C130.779 186.228 131.531 183.076 130.212 180.233C128.893 177.389 126 175.93 123.75 176.973C121.502 178.017 120.755 180.89 122.073 183.734Z" fill="#FFC999"/>
<path fill-rule="evenodd" clip-rule="evenodd" d="M140.119 213.592C135.423 213.592 131.856 209.707 132.027 205.014L133.219 187.99L147.776 187.831L148.401 205.002C148.572 209.695 144.815 213.592 140.119 213.592Z" fill="#FFC999"/>
<path fill-rule="evenodd" clip-rule="evenodd" d="M154.98 179.818C154.301 189.804 149.363 199.736 140.17 198.97C133.299 198.398 125.797 189.683 125.797 179.674C125.797 165.694 131.078 159.833 139.234 159.389C148.596 158.879 155.948 165.58 154.98 179.818Z" fill="#FFC999"/>
<path d="M132.834 195.663C132.951 195.522 133.16 195.502 133.301 195.619C135.433 197.379 137.748 198.431 139.942 198.614C142.649 198.839 145.061 198.12 147.141 196.548C147.287 196.437 147.495 196.466 147.605 196.612C147.715 196.758 147.687 196.966 147.54 197.077C145.332 198.746 142.758 199.514 139.887 199.275C137.548 199.079 135.109 197.972 132.879 196.13C132.738 196.013 132.718 195.804 132.834 195.663Z" fill="#DD936F"/>
<path fill-rule="evenodd" clip-rule="evenodd" d="M151.916 205.61C162.249 211.058 168.167 197.736 167.494 192.076C166.217 181.351 160.513 175.051 160.513 175.051C154.129 155.644 143.83 154.452 133.785 157.09C119.73 160.784 114 178.065 121.187 179.819C132.013 182.458 134.532 173.193 136.169 166.88C137.36 162.283 141.087 163.137 142.468 166.029C142.897 166.929 143.947 167.627 145.532 165.688C147.064 163.816 148.937 165.517 149.278 171.817C149.627 178.29 151.886 175.8 153.023 178.797C154.895 183.734 147.915 185.436 150.129 194.629C150.129 194.629 142.385 200.585 151.916 205.61Z" fill="#253368"/>
<path d="M130.013 172.407C131.572 171.675 133.863 171.501 136.949 172.108C137.225 172.163 137.405 172.431 137.351 172.708C137.296 172.984 137.028 173.164 136.752 173.11C133.865 172.542 131.792 172.7 130.447 173.331C130.062 173.512 129.773 173.717 129.591 173.91L129.537 173.971L129.532 174.029C129.514 174.136 129.463 174.238 129.38 174.317L129.327 174.361C129.134 174.501 128.902 174.562 128.651 174.35C128.438 174.169 128.431 173.973 128.489 173.769C128.528 173.631 128.616 173.483 128.74 173.333C129.014 173 129.447 172.673 130.013 172.407Z" fill="#253368"/>
<path d="M134.05 176.158C135.601 176.162 136.784 177.764 136.779 179.674C136.778 179.956 136.549 180.184 136.267 180.183C135.985 180.182 135.757 179.953 135.758 179.671C135.762 178.27 134.958 177.181 134.047 177.178C133.135 177.176 132.324 178.259 132.319 179.659C132.318 179.941 132.089 180.169 131.807 180.168C131.525 180.167 131.298 179.938 131.299 179.656C131.305 177.746 132.498 176.153 134.05 176.158Z" fill="#253368"/>
<path d="M146.648 176.158C148.199 176.162 149.382 177.764 149.377 179.674C149.376 179.956 149.147 180.184 148.865 180.183C148.583 180.182 148.355 179.953 148.356 179.671C148.36 178.27 147.556 177.181 146.645 177.178C145.733 177.176 144.922 178.259 144.917 179.659C144.916 179.941 144.687 180.169 144.405 180.168C144.123 180.167 143.896 179.938 143.897 179.656C143.903 177.746 145.096 176.153 146.648 176.158Z" fill="#253368"/>
<path fill-rule="evenodd" clip-rule="evenodd" d="M157.019 176.887C157.019 176.887 155.698 183.928 154.466 184.456C155.12 181.683 154.239 173.755 153.937 173.366C153.457 172.743 156.93 171.958 157.019 176.887Z" fill="#253368"/>
<path fill-rule="evenodd" clip-rule="evenodd" d="M123.817 175.659C123.817 175.659 125.688 185.33 126.948 185.789C126.138 183.057 126.414 172.375 126.693 171.969C127.139 171.319 123.626 170.733 123.817 175.659Z" fill="#253368"/>
<path d="M143.226 172.624C143.376 172.429 143.656 172.394 143.85 172.544C144.027 172.68 144.072 172.924 143.966 173.113L143.93 173.168L142.242 175.352L142.657 184.217C142.668 184.449 142.499 184.647 142.275 184.678L142.213 184.682H139.148C138.902 184.682 138.703 184.483 138.703 184.238C138.703 184.012 138.87 183.826 139.088 183.797L139.148 183.793L141.746 183.793L141.346 175.23C141.342 175.145 141.362 175.062 141.403 174.989L141.438 174.937L143.226 172.624Z" fill="#DD936F"/>
<path fill-rule="evenodd" clip-rule="evenodd" d="M136.509 187.194H145.021C145.021 187.194 144.17 189.748 140.766 189.748C137.36 189.748 136.509 187.194 136.509 187.194Z" fill="white"/>
<path d="M145.021 186.707H136.509C136.177 186.707 135.942 187.033 136.047 187.348C136.175 187.734 136.477 188.277 137.016 188.816C137.904 189.704 139.144 190.235 140.766 190.235C142.386 190.235 143.627 189.704 144.515 188.816C145.053 188.277 145.355 187.734 145.483 187.348C145.588 187.033 145.354 186.707 145.021 186.707ZM144.202 187.681L144.095 187.825C144.013 187.927 143.924 188.028 143.825 188.127C143.117 188.835 142.124 189.261 140.766 189.261C139.407 189.261 138.413 188.835 137.705 188.127L137.564 187.977C137.519 187.927 137.476 187.876 137.435 187.825L137.327 187.681H144.202Z" fill="#F5222D"/>
<path d="M143.86 172.189C146.383 171.468 148.702 171.658 150.698 172.415C151.369 172.669 151.85 172.927 152.117 173.108C152.351 173.266 152.412 173.583 152.254 173.816C152.096 174.05 151.779 174.111 151.546 173.953L151.482 173.913C151.428 173.88 151.35 173.835 151.249 173.781C150.989 173.641 150.684 173.501 150.336 173.369C148.534 172.686 146.437 172.514 144.14 173.17C143.869 173.248 143.586 173.091 143.509 172.82C143.432 172.549 143.588 172.266 143.86 172.189Z" fill="#253368"/>
<path fill-rule="evenodd" clip-rule="evenodd" d="M126.481 502.803C122.277 502.902 118.745 499.663 118.48 495.467L112.79 405.696C112.382 399.23 117.432 393.72 123.91 393.568C130.389 393.416 135.693 398.681 135.588 405.16L134.129 495.098C134.061 499.304 130.685 502.704 126.481 502.803Z" fill="#FFC999"/>
<path fill-rule="evenodd" clip-rule="evenodd" d="M121.937 309.719C114.304 309.898 108.316 316.327 108.676 323.953L112.559 405.948C112.858 412.264 118.143 417.186 124.463 417.038C130.784 416.889 135.831 411.723 135.832 405.401L135.853 323.313C135.854 315.679 129.571 309.539 121.937 309.719Z" fill="#FFC999"/>
<path fill-rule="evenodd" clip-rule="evenodd" d="M118.657 507.034L133.427 507.224L134.56 483.874L117.604 483.654L118.657 507.034Z" fill="#3579DC"/>
<path d="M117.732 487.832L133.387 488.035C133.655 488.039 133.869 488.258 133.866 488.526C133.863 488.772 133.678 488.972 133.441 489.001L133.375 489.005L117.72 488.802C117.452 488.798 117.238 488.579 117.241 488.311C117.244 488.065 117.429 487.865 117.666 487.836L117.732 487.832Z" fill="#E4EBF7"/>
<path fill-rule="evenodd" clip-rule="evenodd" d="M117.197 506.094L133.435 506.304L133.87 536.06L97.2829 535.585L97.2517 531.018C97.247 529.338 98.4451 527.897 100.097 527.596L109.847 524.866L114.874 522.09C116.389 521.253 117.319 519.658 117.295 517.927C117.246 514.21 117.17 507.904 117.197 506.094Z" fill="#4E5C93"/>
<path fill-rule="evenodd" clip-rule="evenodd" d="M133.504 537.025L97.0273 536.551C96.682 536.548 96.4056 536.263 96.4093 535.918L96.4622 531.827C96.4669 531.481 96.7509 531.204 97.0971 531.208L133.574 531.682C133.919 531.687 134.196 531.971 134.192 532.316L134.139 536.407C134.134 536.752 133.85 537.03 133.504 537.025Z" fill="#E4EBF7"/>
<path fill-rule="evenodd" clip-rule="evenodd" d="M97.0972 531.209C97.1302 528.63 99.0292 526.457 101.58 526.079L109.848 524.852L110.31 531.29L97.0972 531.209Z" fill="#E4EBF7"/>
<path d="M97.1005 530.961L133.577 531.433C133.714 531.435 133.824 531.547 133.822 531.684C133.821 531.804 133.734 531.903 133.621 531.925L133.571 531.929L97.094 531.457C96.957 531.455 96.8474 531.342 96.8491 531.205C96.8507 531.086 96.937 530.987 97.0504 530.965L97.1005 530.961Z" fill="#A3B5D6"/>
<path d="M116.975 516.8C117.035 516.533 117.301 516.365 117.568 516.425L117.723 516.463C117.899 516.509 118.136 516.581 118.419 516.682C119.045 516.905 119.671 517.194 120.259 517.558C120.903 517.958 121.462 518.424 121.909 518.966C122.178 519.292 121.943 519.784 121.52 519.778C121.07 519.773 120.37 519.861 119.5 520.025C119.303 520.062 119.098 520.102 118.889 520.146L118.35 520.262L117.726 520.405L117.833 520.495C118.219 520.829 118.602 521.207 118.968 521.629L119.187 521.888C119.315 522.046 119.44 522.207 119.561 522.372C119.817 522.724 119.531 523.211 119.099 523.158C118.554 523.09 117.907 523.082 117.179 523.127C116.537 523.167 115.855 523.246 115.158 523.356L114.708 523.43L114.826 523.505C114.876 523.539 114.927 523.573 114.977 523.609L115.128 523.72C115.567 524.056 115.952 524.462 116.267 524.947C116.416 525.177 116.35 525.484 116.12 525.633C115.89 525.782 115.583 525.717 115.434 525.487C115.184 525.101 114.877 524.777 114.526 524.509C114.17 524.238 113.788 524.037 113.406 523.898L113.227 523.836C113.091 523.793 112.987 523.768 112.926 523.758C112.394 523.669 112.366 522.916 112.889 522.787L113.257 522.703L113.364 522.68C113.733 522.6 114.139 522.521 114.57 522.447C115.445 522.296 116.307 522.187 117.118 522.137C117.412 522.118 117.695 522.108 117.966 522.107L118.064 522.107L118.017 522.054C117.745 521.758 117.465 521.489 117.184 521.245L116.973 521.067C116.844 520.962 116.723 520.868 116.611 520.786L116.416 520.648C116.38 520.624 116.353 520.606 116.337 520.597C115.967 520.368 116.05 519.807 116.471 519.695L117.027 519.553C117.455 519.448 117.906 519.342 118.362 519.243C118.691 519.172 119.011 519.107 119.317 519.049C119.627 518.991 119.917 518.942 120.186 518.902L120.4 518.872L120.328 518.813C120.204 518.717 120.075 518.624 119.941 518.534L119.736 518.402C119.213 518.078 118.65 517.818 118.086 517.617C117.938 517.564 117.799 517.519 117.669 517.48L117.351 517.393C117.084 517.333 116.915 517.068 116.975 516.8Z" fill="#E4EBF7"/>
<path d="M117.52 512.044C117.463 512.044 117.407 512.053 117.353 512.072C116.433 512.392 116.16 513.069 116.547 513.752C116.714 514.048 116.965 514.297 117.223 514.495L117.347 514.586L117.603 514.81L117.904 515.065C118.061 515.197 118.229 515.337 118.406 515.484C119.251 516.18 120.137 516.876 121.023 517.527C121.546 517.911 122.055 518.269 122.544 518.594C124.187 519.686 125.532 520.368 126.527 520.532C127.958 520.768 128.709 519.909 128.446 518.199C128.037 515.531 125.954 513.814 122.807 512.853C121.706 512.517 120.539 512.295 119.367 512.165C119.047 512.129 118.74 512.102 118.448 512.082L118.163 512.065C118.011 512.057 117.877 512.052 117.761 512.048L117.52 512.044ZM117.544 513.057L117.599 513.037L117.811 513.042C118.193 513.055 118.686 513.088 119.258 513.151C120.372 513.275 121.481 513.486 122.517 513.802C125.338 514.664 127.126 516.137 127.466 518.349L127.496 518.575C127.596 519.461 127.362 519.664 126.689 519.553C125.874 519.419 124.625 518.786 123.093 517.767C122.618 517.451 122.122 517.103 121.611 516.727C120.741 516.088 119.869 515.403 119.037 514.718L118.543 514.306L117.959 513.807L117.906 513.766C117.724 513.637 117.51 513.44 117.41 513.263L117.38 513.205C117.351 513.14 117.377 513.117 117.544 513.057Z" fill="#E4EBF7"/>
<path fill-rule="evenodd" clip-rule="evenodd" d="M180.505 501.494C184.679 500.977 187.7 498.201 187.349 494.011L179.855 403.43C179.314 396.973 173.512 392.261 167.081 393.056C160.651 393.852 156.172 399.837 157.223 406.231L172.756 495.933C173.438 500.083 176.331 502.01 180.505 501.494Z" fill="#FFC999"/>
<path fill-rule="evenodd" clip-rule="evenodd" d="M156.778 309.82C164.355 308.881 171.219 314.366 171.975 321.963L180.12 403.644C180.748 409.935 176.24 415.578 169.965 416.355C163.691 417.131 157.943 412.759 157.017 406.504L144.999 325.303C143.881 317.749 149.201 310.757 156.778 309.82Z" fill="#FFC999"/>
<path fill-rule="evenodd" clip-rule="evenodd" d="M189.482 504.089L173.772 504.421L169.606 481.082L186.56 480.701L189.482 504.089Z" fill="#3579DC"/>
<path d="M186.451 484.88C186.719 484.874 186.941 485.086 186.947 485.354C186.952 485.599 186.775 485.806 186.539 485.843L186.473 485.849L170.821 486.201C170.553 486.207 170.331 485.995 170.325 485.727C170.32 485.482 170.497 485.275 170.733 485.237L170.799 485.232L186.451 484.88Z" fill="#E4EBF7"/>
<path fill-rule="evenodd" clip-rule="evenodd" d="M189.706 503.135L173.472 503.5L176.433 533.259L213.014 532.436L213.001 527.868C212.992 526.189 211.779 524.759 210.125 524.474L200.349 521.837L195.296 519.108C193.774 518.287 192.436 516.612 191.89 514.97C190.882 511.933 189.751 504.946 189.706 503.135Z" fill="#4E5C93"/>
<path fill-rule="evenodd" clip-rule="evenodd" d="M176.807 534.22L213.279 533.4C213.624 533.392 213.897 533.105 213.891 532.76L213.798 528.669C213.791 528.324 213.503 528.05 213.158 528.058L176.688 528.878C176.341 528.886 176.068 529.172 176.075 529.519L176.167 533.608C176.175 533.954 176.462 534.228 176.807 534.22Z" fill="#E4EBF7"/>
<path fill-rule="evenodd" clip-rule="evenodd" d="M213.158 528.058C213.1 525.481 211.18 523.325 208.626 522.97L200.348 521.823L199.946 528.265L213.158 528.058Z" fill="#E4EBF7"/>
<path d="M213.153 527.81C213.29 527.807 213.403 527.915 213.406 528.052C213.409 528.172 213.326 528.274 213.214 528.3L213.164 528.306L176.693 529.126C176.556 529.129 176.443 529.02 176.44 528.883C176.437 528.763 176.52 528.662 176.632 528.636L176.682 528.63L213.153 527.81Z" fill="#A3B5D6"/>
<path d="M192.547 513.469C192.814 513.406 193.081 513.572 193.143 513.839C193.201 514.083 193.066 514.328 192.838 514.415L192.583 514.487C192.422 514.534 192.241 514.592 192.046 514.664C191.488 514.868 190.93 515.132 190.413 515.458C190.203 515.59 190.004 515.73 189.819 515.877L189.738 515.943L189.757 515.946C190.016 515.978 190.297 516.02 190.598 516.071L190.827 516.111C191.141 516.167 191.47 516.231 191.808 516.301C192.109 516.364 192.407 516.429 192.698 516.495L193.625 516.717C193.644 516.721 193.661 516.726 193.676 516.73C194.074 516.832 194.175 517.337 193.875 517.588L193.656 517.741C193.517 517.841 193.361 517.961 193.193 518.101C192.847 518.39 192.5 518.719 192.166 519.088L192.106 519.156L192.209 519.155C192.391 519.155 192.578 519.158 192.771 519.165L193.063 519.178C193.887 519.221 194.764 519.325 195.653 519.471C195.967 519.522 196.268 519.577 196.55 519.632L197.022 519.728C197.139 519.753 197.228 519.773 197.286 519.787C197.787 519.904 197.791 520.597 197.328 520.741L197.167 520.778C197.075 520.801 196.944 520.841 196.786 520.9C196.409 521.042 196.031 521.243 195.68 521.514C195.326 521.787 195.017 522.118 194.768 522.511C194.621 522.742 194.314 522.811 194.083 522.664C193.852 522.517 193.783 522.21 193.93 521.979C194.243 521.485 194.631 521.07 195.074 520.728C195.173 520.651 195.273 520.58 195.372 520.513L195.473 520.447L195.066 520.383C194.499 520.299 193.942 520.235 193.407 520.194L193.01 520.169C192.278 520.13 191.627 520.144 191.08 520.217C190.649 520.275 190.358 519.79 190.611 519.436C190.735 519.262 190.865 519.092 190.998 518.927C191.423 518.4 191.874 517.936 192.329 517.535L192.426 517.452L192.045 517.366L191.607 517.273C191.277 517.205 190.958 517.142 190.653 517.088L190.263 517.022C189.571 516.91 189.01 516.852 188.628 516.861C188.206 516.871 187.966 516.382 188.231 516.053C188.677 515.502 189.237 515.026 189.884 514.618C190.465 514.252 191.085 513.959 191.705 513.732L191.969 513.639C192.217 513.555 192.416 513.5 192.547 513.469Z" fill="#E4EBF7"/>
<path d="M192.555 509.088L192.303 509.095C191.919 509.109 191.409 509.145 190.808 509.215C189.639 509.35 188.469 509.578 187.363 509.92C184.177 510.905 182.074 512.648 181.686 515.346C181.44 517.057 182.196 517.909 183.621 517.663C184.612 517.492 185.947 516.801 187.576 515.697C188.063 515.367 188.57 515.005 189.091 514.615C189.973 513.954 190.855 513.247 191.697 512.54L192.197 512.115L192.794 511.595C192.864 511.55 193.027 511.418 193.193 511.247C193.465 510.966 193.649 510.676 193.695 510.351C193.776 509.789 193.413 509.348 192.721 509.114C192.668 509.096 192.612 509.087 192.555 509.088ZM192.478 510.082C192.584 510.123 192.651 510.162 192.69 510.195L192.711 510.217C192.703 510.281 192.619 510.413 192.48 510.557C192.365 510.675 192.248 510.77 192.178 510.819L191.551 511.363C191.397 511.495 191.232 511.635 191.058 511.781C190.23 512.476 189.362 513.172 188.496 513.82C187.987 514.201 187.493 514.555 187.02 514.876C185.502 515.904 184.263 516.545 183.452 516.685C182.731 516.81 182.514 516.565 182.668 515.488C182.99 513.249 184.797 511.752 187.656 510.868C188.698 510.546 189.81 510.33 190.922 510.2L191.325 510.157C191.711 510.12 192.044 510.098 192.311 510.087L192.478 510.082Z" fill="#E4EBF7"/>
<path fill-rule="evenodd" clip-rule="evenodd" d="M158.768 280.857C163.237 280.978 168.584 294.162 175.433 305.572C184.351 320.429 194.829 335.382 199.161 346.299C198.141 350.187 189.246 359.757 189.246 359.757C189.246 359.757 190.959 363.21 191.37 365.069C181.453 378.172 167.684 379.759 167.684 379.759L167.653 382.418C145.113 392.796 114.931 382.85 114.931 382.85C114.931 382.85 114.367 382.273 114.771 380.188C104.538 380.069 82.6243 367.086 82.6243 367.086L85.7393 360.662L76.7264 351.438C76.7264 351.438 104.605 311.507 109.562 297.78C114.166 285.032 121.302 279.98 121.302 279.98C121.302 279.98 143.571 280.445 158.768 280.857Z" fill="#4E5C93"/>
<path d="M119.866 290.552C119.958 290.364 120.185 290.286 120.374 290.378C120.543 290.461 120.623 290.654 120.571 290.829L120.548 290.886L83.4879 366.595L83.8349 366.85L84.1249 367.058C84.8569 367.578 85.7198 368.157 86.708 368.782C89.5341 370.568 92.7957 372.354 96.4486 374.022C102.128 376.615 108.222 378.675 114.657 380.004C114.862 380.047 114.994 380.248 114.952 380.453C114.909 380.658 114.708 380.79 114.503 380.748C108.01 379.407 101.862 377.328 96.1332 374.713C92.4479 373.03 89.1564 371.227 86.3023 369.424C85.4135 368.862 84.6241 368.336 83.9378 367.855L83.6854 367.677C83.4769 367.529 83.2907 367.395 83.1272 367.274L82.7753 367.009C82.6517 366.912 82.602 366.751 82.6444 366.604L82.6682 366.543L119.866 290.552Z" fill="#253368"/>
<path d="M169.981 312.302C170.157 312.233 170.353 312.303 170.447 312.46L170.474 312.515L191.369 365.284C191.416 365.405 191.399 365.542 191.323 365.647L191.192 365.821L191.018 366.043C190.986 366.083 190.954 366.124 190.92 366.166L190.814 366.297C190.398 366.807 189.904 367.374 189.335 367.985C187.708 369.727 185.795 371.468 183.608 373.094C178.933 376.567 173.664 379.03 167.845 380.039C167.639 380.075 167.442 379.936 167.407 379.73C167.371 379.523 167.509 379.327 167.716 379.291C173.408 378.304 178.57 375.891 183.155 372.484C185.304 370.888 187.183 369.177 188.779 367.466C189.337 366.869 189.82 366.314 190.225 365.817L190.423 365.572L190.584 365.365L169.768 312.795C169.699 312.619 169.769 312.423 169.926 312.329L169.981 312.302Z" fill="#253368"/>
<path d="M149.027 282.3C149.233 282.259 149.433 282.393 149.474 282.598L150.399 287.258C151.135 290.979 151.955 295.152 152.838 299.681L153.918 305.24C155.898 315.451 157.862 325.751 159.73 335.763L160.772 341.371C161.038 342.805 161.299 344.224 161.557 345.628L162.586 351.269C164.787 363.398 166.626 374.011 168.024 382.738C168.053 382.921 167.946 383.098 167.771 383.157C166.665 383.533 165.545 383.882 164.413 384.202C150.763 388.067 136.202 387.848 122.452 385.161L121.46 384.962C119.832 384.627 118.334 384.277 116.979 383.925L116.577 383.82C116.145 383.705 115.752 383.597 115.397 383.495L114.687 383.286C114.573 383.252 114.489 383.225 114.433 383.207C114.27 383.155 114.165 383.001 114.17 382.835L114.178 382.772L131.173 297.595C131.214 297.389 131.414 297.256 131.62 297.297C131.805 297.334 131.932 297.499 131.925 297.682L131.918 297.743L114.989 382.584L115.606 382.765C115.956 382.865 116.345 382.973 116.772 383.086C118.479 383.539 120.432 383.992 122.597 384.415C136.241 387.082 150.688 387.299 164.206 383.472C165.046 383.234 165.879 382.981 166.704 382.712L167.222 382.539L166.795 379.9C165.471 371.799 163.806 362.246 161.856 351.499L160.81 345.765L160.29 342.938C160.027 341.514 159.761 340.076 159.491 338.625C157.305 326.861 154.974 314.646 152.633 302.602L150.89 293.68L148.729 282.747C148.688 282.541 148.821 282.341 149.027 282.3Z" fill="#253368"/>
<path d="M141.798 282.881C141.987 282.886 142.14 283.027 142.165 283.208L142.169 283.27L140.398 356.225C140.393 356.434 140.219 356.6 140.009 356.595C139.82 356.591 139.667 356.449 139.642 356.268L139.639 356.206L141.409 283.252C141.414 283.042 141.589 282.876 141.798 282.881Z" fill="#253368"/>
<path d="M129.354 282.194C129.417 281.994 129.629 281.882 129.83 281.944C130.01 282 130.119 282.178 130.093 282.359L130.08 282.42L115.083 330.701C115.021 330.901 114.808 331.013 114.608 330.951C114.428 330.895 114.319 330.717 114.344 330.536L114.358 330.475L129.354 282.194Z" fill="#253368"/>
<path fill-rule="evenodd" clip-rule="evenodd" d="M119.671 280.856L120.314 275.974C120.314 275.974 139.593 276.089 158.499 275.142C158.978 277.309 159.527 281.21 159.527 281.21C157.937 279.904 140.762 283.717 119.671 280.856Z" fill="#4E5C93"/>
<path d="M157.497 280.83C157.706 280.82 157.884 280.982 157.894 281.192C157.903 281.401 157.741 281.579 157.532 281.589L155.57 281.677C147.417 282.028 139.541 282.179 132.527 282.165L130.452 282.156C128.292 282.141 126.355 282.109 124.785 282.066L123.57 282.028C123.034 282.008 122.592 281.988 122.268 281.968L121.908 281.941C121.86 281.937 121.819 281.933 121.783 281.929C121.716 281.921 121.667 281.912 121.623 281.899L121.594 281.896C121.558 281.887 121.527 281.854 121.372 281.688L121.429 281.377C121.472 281.174 121.499 281.171 121.6 281.162C121.68 281.134 121.762 281.135 121.836 281.158L121.881 281.175L122.129 281.197L122.575 281.224C122.809 281.237 123.088 281.249 123.405 281.261L124.237 281.29C126.168 281.35 128.761 281.392 131.693 281.403L133.373 281.407C140.727 281.408 148.987 281.228 157.497 280.83Z" fill="#253368"/>
<path fill-rule="evenodd" clip-rule="evenodd" d="M101.568 278.575C96.9174 277.425 94.0807 272.722 95.2297 268.072L106.438 222.75C107.588 218.1 112.29 215.261 116.941 216.411C121.593 217.562 124.43 222.265 123.281 226.915L112.072 272.236C110.922 276.887 106.22 279.725 101.568 278.575Z" fill="#FFC999"/>
<path fill-rule="evenodd" clip-rule="evenodd" d="M118.528 246.128L123.28 226.915C124.425 222.283 121.574 217.557 116.941 216.412C112.31 215.267 107.583 218.118 106.438 222.75L101.732 241.781L118.528 246.128Z" fill="#3579DC"/>
<path d="M117.256 216.18C121.984 217.349 124.92 222.124 123.86 226.853L123.815 227.047L119.063 246.26C119.027 246.404 118.893 246.497 118.75 246.487L118.697 246.478L101.9 242.131C101.74 242.089 101.643 241.926 101.685 241.765C101.722 241.623 101.855 241.531 101.997 241.541L102.05 241.55L118.553 245.821L123.232 226.903C124.322 222.497 121.661 217.999 117.303 216.812L117.112 216.763C116.951 216.723 116.853 216.561 116.893 216.4C116.928 216.257 117.061 216.163 117.203 216.172L117.256 216.18Z" fill="#4E5C93"/>
<path fill-rule="evenodd" clip-rule="evenodd" d="M208.742 201.788L209.062 202.42C211.314 206.865 209.537 212.294 205.092 214.546L164.067 235.335C159.622 237.587 154.193 235.81 151.94 231.364L151.62 230.732C149.369 226.288 151.145 220.859 155.59 218.607L196.616 197.819C201.06 195.566 206.489 197.344 208.742 201.788Z" fill="#FFC999"/>
<path fill-rule="evenodd" clip-rule="evenodd" d="M172.935 209.818L155.281 218.763C151.024 220.921 149.449 226.449 151.781 231.049C154.112 235.648 159.501 237.647 163.757 235.492L181.244 226.631L172.935 209.818Z" fill="#3579DC"/>
<path d="M172.671 209.299C172.808 209.229 172.973 209.271 173.062 209.39L173.091 209.439L181.4 226.251C181.477 226.406 181.413 226.593 181.259 226.669C181.122 226.737 180.959 226.694 180.871 226.575L180.841 226.527L172.671 209.997L155.3 218.801C151.26 220.847 149.725 226.063 151.843 230.475L151.937 230.666C152.015 230.82 151.953 231.007 151.8 231.085C151.646 231.163 151.458 231.102 151.381 230.948C149.007 226.263 150.56 220.636 154.84 218.337L155.018 218.245L172.671 209.299Z" fill="#4E5C93"/>
<path fill-rule="evenodd" clip-rule="evenodd" d="M162.33 214.999C158.079 212.608 153.061 214.92 150.601 212.709C149.146 211.402 148.646 205.213 148.646 205.213H130.502C130.502 205.213 130 211.402 128.545 212.709C126.086 214.92 119.614 213.579 112.835 217.251C106.436 220.718 110.275 230.241 113.205 238.115C113.883 239.935 112.714 243.365 113.846 245.896C114.985 248.443 116.716 251.527 117.402 253.175C119.659 258.589 119.195 264.422 120.65 269.334C120.65 269.334 118.332 273.821 121.993 275.641H157.155C161.545 273.638 158.496 269.334 158.496 269.334C159.886 264.647 159.042 260.866 161.102 253.999C161.514 252.626 163.063 250.45 164.384 247.544C166.443 243.013 166.033 238.664 165.757 237.566C163.127 227.084 168.427 218.429 162.33 214.999Z" fill="#3579DC"/>
<path d="M133.532 213.279L145.559 213.376C145.725 213.377 145.858 213.512 145.857 213.678C145.856 213.825 145.748 213.947 145.608 213.971L145.554 213.976L133.527 213.878C133.362 213.877 133.229 213.742 133.23 213.576C133.231 213.429 133.338 213.307 133.478 213.283L133.532 213.279Z" fill="#4E5C93"/>
<path d="M116.047 227.366C116.118 227.216 116.297 227.152 116.447 227.223C116.597 227.295 116.66 227.474 116.589 227.623L116.503 227.813L116.35 228.168C116.287 228.318 116.221 228.48 116.151 228.655C115.82 229.491 115.488 230.438 115.179 231.478C114.057 235.244 113.515 239.172 113.87 242.985C114.148 245.967 115.108 248.396 117.419 252.232L117.795 252.849L117.835 252.955L118.301 255.574C118.503 256.697 118.706 257.82 118.906 258.918L119.596 262.648C120.226 266.003 120.696 268.335 120.941 269.257C120.961 269.333 120.951 269.413 120.913 269.481C119.548 271.91 120.541 275.009 121.915 275.327L121.994 275.342L157.195 275.341L157.284 275.287C157.297 275.278 157.311 275.269 157.325 275.26L157.393 275.213C157.597 275.069 157.801 274.887 157.992 274.667C159 273.506 159.244 271.816 158.221 269.453C158.197 269.398 158.19 269.337 158.201 269.278L158.461 267.914C159.185 264.094 159.796 260.628 160.298 257.563L160.596 255.703C160.651 255.359 160.701 255.032 160.749 254.722L160.955 253.331L161.005 253.202C163.955 248.928 165.252 245.542 165.457 241.761C165.645 238.314 165.015 234.888 163.85 231.663C163.491 230.671 163.106 229.771 162.722 228.982L162.566 228.668C162.516 228.569 162.467 228.475 162.421 228.387L162.255 228.082C162.238 228.052 162.225 228.029 162.215 228.013C162.131 227.87 162.179 227.686 162.322 227.602C162.465 227.518 162.648 227.565 162.733 227.708L162.841 227.901L162.88 227.974C162.996 228.187 163.124 228.436 163.262 228.72C163.655 229.527 164.047 230.446 164.414 231.459C165.605 234.754 166.249 238.258 166.056 241.793C165.85 245.596 164.574 249.009 161.722 253.218L161.539 253.484L161.388 254.508L161.242 255.457C161.138 256.124 161.021 256.859 160.89 257.66L160.708 258.76C160.21 261.738 159.617 265.065 158.922 268.705L158.807 269.301L158.861 269.428C159.84 271.824 159.589 273.653 158.54 274.947L158.446 275.06C158.099 275.46 157.75 275.723 157.486 275.867L157.402 275.911L157.27 275.942L121.949 275.938C120.063 275.655 118.853 272.122 120.31 269.333L120.331 269.295L120.211 268.794C119.952 267.667 119.56 265.698 119.064 263.066L118.761 261.447C118.518 260.136 118.266 258.759 118.014 257.362L117.254 253.115L117.09 252.847C114.666 248.867 113.622 246.34 113.297 243.283L113.273 243.04C112.91 239.142 113.462 235.141 114.604 231.307C114.918 230.25 115.256 229.286 115.593 228.434L115.731 228.093C115.776 227.985 115.819 227.883 115.86 227.786L116.01 227.446C116.025 227.413 116.038 227.386 116.047 227.366Z" fill="#4E5C93"/>
<path d="M160.538 244.129C160.704 244.129 160.838 244.263 160.838 244.429C160.838 244.576 160.732 244.699 160.592 244.724L160.538 244.729H117.142C116.976 244.729 116.842 244.595 116.842 244.429C116.842 244.282 116.948 244.159 117.088 244.134L117.142 244.129H160.538Z" fill="#4E5C93"/>
<path d="M128.175 212.493C128.33 212.385 128.538 212.41 128.665 212.541L128.704 212.589L139.414 228.081L150.607 212.855C150.719 212.703 150.923 212.658 151.085 212.741L151.138 212.774C151.29 212.886 151.335 213.09 151.252 213.253L151.219 213.305L139.711 228.961C139.569 229.154 139.292 229.166 139.133 229.002L139.092 228.952L128.078 213.022C127.959 212.849 128.002 212.612 128.175 212.493Z" fill="#E4EBF7"/>
<path fill-rule="evenodd" clip-rule="evenodd" d="M145.584 234.388C145.584 237.877 142.756 240.705 139.268 240.705C135.778 240.705 132.95 237.877 132.95 234.388C132.95 230.9 135.778 228.071 139.268 228.071C142.756 228.071 145.584 230.9 145.584 234.388Z" fill="#E4EBF7"/>
<path fill-rule="evenodd" clip-rule="evenodd" d="M143.829 234.388C143.829 236.907 141.786 238.949 139.267 238.949C136.748 238.949 134.706 236.907 134.706 234.388C134.706 231.869 136.748 229.827 139.267 229.827C141.786 229.827 143.829 231.869 143.829 234.388Z" fill="#FAAD14"/>
<path fill-rule="evenodd" clip-rule="evenodd" d="M134.116 351.906L80.5595 339.563C78.7661 339.15 77.6483 337.363 78.0614 335.57L86.8253 297.542C87.2384 295.75 89.0261 294.632 90.8185 295.045L144.376 307.388C146.167 307.801 147.286 309.589 146.873 311.382L138.109 349.409C137.696 351.201 135.908 352.319 134.116 351.906Z" fill="#3579DC"/>
<path fill-rule="evenodd" clip-rule="evenodd" d="M133.585 353.765L80.0278 341.423C78.2345 341.01 77.1175 339.222 77.5298 337.429L86.2936 299.403C86.7068 297.61 88.4944 296.491 90.2878 296.904L143.844 309.247C145.637 309.661 146.754 311.448 146.341 313.241L137.577 351.268C137.165 353.06 135.377 354.179 133.585 353.765Z" fill="#253368"/>
<path fill-rule="evenodd" clip-rule="evenodd" d="M104.311 326.599C101.639 326.69 99.3695 324.664 99.1572 322L95.0592 270.575C94.8394 265.837 98.5336 261.832 103.274 261.67C108.057 261.508 112.034 265.317 112.077 270.102L109.13 321.887C108.984 324.468 106.894 326.511 104.311 326.599Z" fill="#FFC999"/>
<path fill-rule="evenodd" clip-rule="evenodd" d="M97.5201 332.133C97.5201 332.133 96.4871 319.307 100.708 315.842C104.529 312.704 109.197 318.205 109.197 318.205C109.197 318.205 110.978 321.154 113.103 325.759C114.638 329.084 116.998 336.383 114.697 335.852C112.231 335.283 111.967 330.179 110.27 330.894C108.527 331.627 109.482 334.75 109.562 338.685C109.611 341.144 110.625 341.019 110.27 343.112C109.575 347.203 100.132 346.35 97.5201 332.133Z" fill="#FFC999"/>
<path d="M106.275 334.071C106.476 334.114 106.604 334.312 106.561 334.513L106.547 334.594C106.538 334.645 106.528 334.713 106.518 334.796L106.507 334.885C106.237 337.292 106.738 340.501 108.652 344.18C108.747 344.363 108.676 344.587 108.494 344.682C108.311 344.777 108.087 344.706 107.992 344.524C106.006 340.706 105.481 337.349 105.768 334.802L105.791 334.611C105.807 334.497 105.822 334.413 105.833 334.358C105.872 334.177 106.036 334.055 106.215 334.064L106.275 334.071Z" fill="#DD936F"/>
<path d="M103.035 333.886C103.24 333.9 103.395 334.078 103.381 334.283C103.222 336.666 103.696 339.235 104.585 341.785C104.856 342.561 105.146 343.277 105.436 343.916C105.512 344.083 105.583 344.236 105.65 344.374L105.817 344.708C105.914 344.889 105.846 345.114 105.664 345.211C105.483 345.308 105.257 345.239 105.161 345.058L105.048 344.836C104.96 344.66 104.863 344.455 104.758 344.224C104.459 343.565 104.161 342.828 103.883 342.03C102.963 339.393 102.472 336.731 102.639 334.233C102.652 334.028 102.83 333.873 103.035 333.886Z" fill="#DD936F"/>
<path d="M99.9994 333.178C100.205 333.178 100.372 333.345 100.372 333.55L100.377 333.794C100.379 333.875 100.383 333.971 100.389 334.081C100.412 334.51 100.452 334.989 100.514 335.506C100.693 336.98 101.015 338.453 101.513 339.824C101.779 340.556 102.09 341.239 102.448 341.865C102.55 342.043 102.488 342.271 102.309 342.373C102.131 342.475 101.904 342.413 101.802 342.234C101.422 341.57 101.094 340.848 100.814 340.079C100.294 338.649 99.9605 337.122 99.7754 335.595C99.7107 335.061 99.6691 334.565 99.6459 334.12L99.6301 333.734C99.6281 333.657 99.6272 333.596 99.6272 333.55C99.6272 333.345 99.7938 333.178 99.9994 333.178Z" fill="#DD936F"/>
</svg>
