<svg width="17" height="17" viewBox="0 0 17 17" fill="none" xmlns="http://www.w3.org/2000/svg">
<path d="M15.0078 7.99414L16.0703 7.39648C16.3691 7.23047 16.5352 6.86523 16.4355 6.5C16.0703 5.10547 15.3066 3.84375 14.3105 2.81445C14.0449 2.58203 13.6465 2.51562 13.3477 2.68164L12.2852 3.3125C12.0195 3.11328 11.5215 2.81445 11.1895 2.68164V1.45312C11.1895 1.12109 10.9238 0.755859 10.5918 0.689453C9.23047 0.324219 7.73633 0.324219 6.375 0.689453C6.00977 0.789062 5.77734 1.08789 5.77734 1.45312V2.68164C5.44531 2.81445 4.94727 3.11328 4.68164 3.3125L3.61914 2.68164C3.32031 2.51562 2.92188 2.58203 2.65625 2.81445C1.66016 3.84375 0.896484 5.10547 0.53125 6.5C0.431641 6.86523 0.597656 7.23047 0.896484 7.39648L1.95898 7.99414C1.92578 8.19336 1.92578 8.45898 1.92578 8.625C1.92578 8.82422 1.92578 9.08984 1.95898 9.25586L0.896484 9.88672C0.597656 10.0527 0.431641 10.418 0.53125 10.7832C0.896484 12.1777 1.66016 13.4395 2.65625 14.4688C2.92188 14.7012 3.32031 14.7676 3.61914 14.6016L4.68164 13.9707C4.94727 14.1699 5.44531 14.4688 5.77734 14.6016V15.8301C5.77734 16.1621 6.04297 16.5273 6.375 16.5938C7.73633 16.959 9.23047 16.959 10.5918 16.5938C10.957 16.4941 11.1895 16.1953 11.1895 15.8301V14.6016C11.5215 14.4688 12.0195 14.1699 12.2852 13.9707L13.3477 14.6016C13.6465 14.7676 14.0449 14.7012 14.3105 14.4688C15.3066 13.4395 16.0703 12.1777 16.4355 10.7832C16.5352 10.418 16.3691 10.0527 16.0703 9.88672L15.0078 9.25586C15.041 8.85742 15.041 8.42578 15.0078 7.99414ZM13.248 10.1191L14.709 10.9492C14.5098 11.5469 13.9785 12.4102 13.5801 12.875L12.1191 12.0449C11.0566 12.9414 10.9238 13.041 9.5957 13.5059V15.1992C9.29688 15.2324 8.79883 15.2988 8.5 15.2988C8.16797 15.2988 7.66992 15.2324 7.37109 15.1992V13.5059C6.04297 13.041 5.87695 12.9414 4.84766 12.0449L3.38672 12.875C2.98828 12.4102 2.45703 11.5469 2.25781 10.9492L3.71875 10.1191C3.45312 8.72461 3.45312 8.55859 3.71875 7.16406L2.25781 6.33398C2.52344 5.63672 2.88867 4.97266 3.38672 4.4082L4.84766 5.23828C5.91016 4.3418 6.04297 4.24219 7.37109 3.77734V2.08398C7.66992 2.05078 8.16797 1.98438 8.5 1.98438C8.79883 1.98438 9.29688 2.05078 9.5957 2.08398V3.77734C10.9238 4.24219 11.0898 4.3418 12.1191 5.23828L13.5801 4.4082C13.9785 4.87305 14.5098 5.73633 14.709 6.33398L13.248 7.16406C13.5137 8.55859 13.5137 8.72461 13.248 10.1191ZM8.5 5.4375C6.74023 5.4375 5.3125 6.89844 5.3125 8.625C5.3125 10.3848 6.74023 11.8125 8.5 11.8125C10.2266 11.8125 11.6875 10.3848 11.6875 8.625C11.6875 6.89844 10.2266 5.4375 8.5 5.4375ZM8.5 10.2188C7.60352 10.2188 6.90625 9.52148 6.90625 8.625C6.90625 7.76172 7.60352 7.03125 8.5 7.03125C9.36328 7.03125 10.0938 7.76172 10.0938 8.625C10.0938 9.52148 9.36328 10.2188 8.5 10.2188Z" fill="#8E97A4"/>
</svg>
