<svg width="46" height="46" viewBox="0 0 46 46" fill="none" xmlns="http://www.w3.org/2000/svg">
<rect width="46" height="46" rx="5" fill="#E9EBEC"/>
<path d="M32.3633 23.3594L30.4375 21.7656V18.5781C30.4375 18.4453 30.3047 18.3125 30.1719 18.3125H29.1094C28.9434 18.3457 28.8438 18.4453 28.8438 18.5781V20.4707L24.1621 16.6191C23.8965 16.3867 23.3652 16.2207 23 16.2207C22.6016 16.2207 22.0703 16.3867 21.8047 16.6191L13.6035 23.3594C13.5039 23.459 13.4375 23.625 13.4375 23.7578C13.4375 23.8574 13.4707 24.0234 13.5371 24.0898L13.9023 24.5215C13.9688 24.6211 14.168 24.6875 14.3008 24.6875C14.4004 24.6875 14.5664 24.6543 14.6328 24.5879L15.5625 23.8242V30C15.5625 30.5977 16.0273 31.0625 16.625 31.0625H20.875C21.4395 31.0625 21.9043 30.5977 21.9375 30V26.5469H24.0625V30C24.0625 30.5977 24.5273 31.0625 25.125 31.0625H29.375C29.9395 31.0625 30.4043 30.5977 30.4375 30.0332V23.8242L31.334 24.5879C31.4004 24.6543 31.5664 24.7207 31.666 24.7207C31.7988 24.7207 31.998 24.6211 32.0977 24.5215L32.4297 24.0898C32.4961 24.0234 32.5625 23.8574 32.5625 23.7578C32.5625 23.625 32.4629 23.459 32.3633 23.3594ZM28.8105 29.4688H25.6562V26.0156C25.623 25.4512 25.1582 24.9863 24.5938 24.9531H21.4062C20.8086 24.9863 20.3438 25.4512 20.3438 26.0156V29.4688H17.1562V22.5293L23 17.7148L28.8438 22.5293L28.8105 29.4688Z" fill="#404650"/>
</svg>
