<svg width="69" height="52" viewBox="0 0 69 52" fill="none" xmlns="http://www.w3.org/2000/svg">
<path d="M28.41 37.252C27.696 37.252 26.989 37.119 26.289 36.853C25.603 36.573 25.008 36.23 24.504 35.824L25.638 34.27C26.1 34.634 26.555 34.921 27.003 35.131C27.465 35.327 27.962 35.425 28.494 35.425C29.054 35.425 29.467 35.313 29.733 35.089C29.999 34.851 30.132 34.55 30.132 34.186C30.132 33.976 30.069 33.794 29.943 33.64C29.817 33.472 29.649 33.325 29.439 33.199C29.229 33.073 28.991 32.961 28.725 32.863C28.459 32.751 28.193 32.639 27.927 32.527C27.591 32.401 27.248 32.254 26.898 32.086C26.548 31.918 26.233 31.715 25.953 31.477C25.687 31.239 25.463 30.966 25.281 30.658C25.113 30.336 25.029 29.958 25.029 29.524C25.029 28.614 25.365 27.872 26.037 27.298C26.709 26.724 27.626 26.437 28.788 26.437C29.502 26.437 30.146 26.563 30.72 26.815C31.294 27.067 31.791 27.354 32.211 27.676L31.098 29.146C30.734 28.88 30.363 28.67 29.985 28.516C29.621 28.348 29.236 28.264 28.83 28.264C28.312 28.264 27.927 28.376 27.675 28.6C27.437 28.81 27.318 29.076 27.318 29.398C27.318 29.608 27.374 29.79 27.486 29.944C27.612 30.084 27.773 30.21 27.969 30.322C28.165 30.434 28.389 30.539 28.641 30.637C28.907 30.735 29.18 30.833 29.46 30.931C29.81 31.057 30.16 31.204 30.51 31.372C30.86 31.526 31.175 31.722 31.455 31.96C31.749 32.198 31.98 32.492 32.148 32.842C32.33 33.178 32.421 33.584 32.421 34.06C32.421 34.508 32.33 34.928 32.148 35.32C31.98 35.698 31.728 36.034 31.392 36.328C31.056 36.608 30.636 36.832 30.132 37C29.628 37.168 29.054 37.252 28.41 37.252ZM37.7998 37.252C37.1978 37.252 36.6868 37.161 36.2668 36.979C35.8608 36.797 35.5248 36.545 35.2588 36.223C35.0068 35.887 34.8178 35.495 34.6918 35.047C34.5798 34.585 34.5238 34.074 34.5238 33.514V28.6H33.0538V26.794L34.6498 26.689L34.9438 23.875H36.9598V26.689H39.5848V28.6H36.9598V33.514C36.9598 34.718 37.4428 35.32 38.4088 35.32C38.5908 35.32 38.7728 35.299 38.9548 35.257C39.1508 35.215 39.3258 35.159 39.4798 35.089L39.8998 36.874C39.6198 36.972 39.2978 37.056 38.9338 37.126C38.5838 37.21 38.2058 37.252 37.7998 37.252ZM43.8025 37.252C42.8925 37.252 42.1575 36.979 41.5975 36.433C41.0375 35.873 40.7575 35.138 40.7575 34.228C40.7575 33.682 40.8695 33.199 41.0935 32.779C41.3315 32.345 41.6955 31.974 42.1855 31.666C42.6895 31.358 43.3195 31.099 44.0755 30.889C44.8455 30.679 45.7625 30.518 46.8265 30.406C46.8125 30.14 46.7705 29.888 46.7005 29.65C46.6445 29.398 46.5395 29.181 46.3855 28.999C46.2455 28.803 46.0565 28.656 45.8185 28.558C45.5805 28.446 45.2865 28.39 44.9365 28.39C44.4325 28.39 43.9355 28.488 43.4455 28.684C42.9695 28.88 42.5005 29.118 42.0385 29.398L41.1565 27.781C41.7305 27.417 42.3745 27.102 43.0885 26.836C43.8025 26.57 44.5725 26.437 45.3985 26.437C46.6865 26.437 47.6455 26.822 48.2755 27.592C48.9195 28.348 49.2415 29.447 49.2415 30.889V37H47.2465L47.0785 35.866H46.9945C46.5325 36.258 46.0355 36.587 45.5035 36.853C44.9855 37.119 44.4185 37.252 43.8025 37.252ZM44.5795 35.362C44.9995 35.362 45.3775 35.264 45.7135 35.068C46.0635 34.872 46.4345 34.592 46.8265 34.228V31.918C46.1265 32.002 45.5385 32.114 45.0625 32.254C44.5865 32.394 44.2015 32.555 43.9075 32.737C43.6135 32.905 43.4035 33.101 43.2775 33.325C43.1515 33.549 43.0885 33.787 43.0885 34.039C43.0885 34.501 43.2285 34.837 43.5085 35.047C43.7885 35.257 44.1455 35.362 44.5795 35.362ZM55.4365 37.252C54.8345 37.252 54.3235 37.161 53.9035 36.979C53.4975 36.797 53.1615 36.545 52.8955 36.223C52.6435 35.887 52.4545 35.495 52.3285 35.047C52.2165 34.585 52.1605 34.074 52.1605 33.514V28.6H50.6905V26.794L52.2865 26.689L52.5805 23.875H54.5965V26.689H57.2215V28.6H54.5965V33.514C54.5965 34.718 55.0795 35.32 56.0455 35.32C56.2275 35.32 56.4095 35.299 56.5915 35.257C56.7875 35.215 56.9625 35.159 57.1165 35.089L57.5365 36.874C57.2565 36.972 56.9345 37.056 56.5705 37.126C56.2205 37.21 55.8425 37.252 55.4365 37.252ZM63.4733 37.252C62.7593 37.252 62.0943 37.133 61.4783 36.895C60.8623 36.643 60.3233 36.286 59.8613 35.824C59.3993 35.362 59.0353 34.802 58.7693 34.144C58.5173 33.472 58.3913 32.709 58.3913 31.855C58.3913 31.015 58.5243 30.259 58.7903 29.587C59.0563 28.915 59.4063 28.348 59.8403 27.886C60.2883 27.424 60.7993 27.067 61.3733 26.815C61.9473 26.563 62.5353 26.437 63.1373 26.437C63.8373 26.437 64.4533 26.556 64.9853 26.794C65.5173 27.032 65.9583 27.368 66.3083 27.802C66.6723 28.236 66.9453 28.754 67.1273 29.356C67.3093 29.958 67.4003 30.616 67.4003 31.33C67.4003 31.568 67.3863 31.792 67.3583 32.002C67.3443 32.212 67.3233 32.38 67.2953 32.506H60.7433C60.8553 33.43 61.1773 34.144 61.7093 34.648C62.2553 35.138 62.9483 35.383 63.7883 35.383C64.2363 35.383 64.6493 35.32 65.0273 35.194C65.4193 35.054 65.8043 34.865 66.1823 34.627L67.0013 36.139C66.5113 36.461 65.9653 36.727 65.3633 36.937C64.7613 37.147 64.1313 37.252 63.4733 37.252ZM60.7223 30.868H65.3003C65.3003 30.07 65.1253 29.447 64.7753 28.999C64.4393 28.537 63.9143 28.306 63.2003 28.306C62.5843 28.306 62.0453 28.523 61.5833 28.957C61.1213 29.391 60.8343 30.028 60.7223 30.868Z" fill="#3579DC"/>
<path d="M2.378 41V20.5H8.118L8.61 24.026H8.774C9.53933 22.632 10.4413 21.6207 11.48 20.992C12.546 20.336 13.5847 20.008 14.596 20.008C15.2247 20.008 15.7303 20.049 16.113 20.131C16.4957 20.1857 16.8373 20.2813 17.138 20.418L15.99 26.486C15.6073 26.404 15.2383 26.3357 14.883 26.281C14.555 26.199 14.1587 26.158 13.694 26.158C12.956 26.158 12.177 26.4177 11.357 26.937C10.5643 27.429 9.922 28.3173 9.43 29.602V41H2.378Z" fill="#3579DC"/>
</svg>
