<svg width="322" height="644" viewBox="0 0 322 644" fill="none" xmlns="http://www.w3.org/2000/svg">
<path fill-rule="evenodd" clip-rule="evenodd" d="M158.679 169.759C160.336 167.662 163.349 167.24 165.519 168.8L207.401 198.919C211.16 201.813 211.827 207.221 208.885 210.942C205.917 214.697 200.44 215.268 196.761 212.208L159.158 176.482C157.283 174.702 157.076 171.786 158.679 169.759Z" fill="#FFC999"/>
<path fill-rule="evenodd" clip-rule="evenodd" d="M158.459 161.856C158.459 161.856 166.283 166.81 165.219 172.167C164.257 177.018 159.304 176.64 159.304 176.64C159.304 176.64 154.319 177.047 149.029 175.339C145.543 174.216 139.131 171.405 139.474 169.494C139.921 167.003 146.993 170.606 147.852 168.976C148.732 167.305 147.327 166.452 144.767 163.461C143.168 161.592 140.857 160.379 139.803 158.535C137.744 154.933 147.344 153.446 158.459 161.856Z" fill="#FFC999"/>
<path d="M141.143 157.195C141.224 157.006 141.443 156.918 141.632 156.999C143.268 157.698 144.712 158.564 145.975 159.56C147.211 160.534 148.21 161.578 148.992 162.624C149.267 162.992 149.496 163.335 149.68 163.643L149.821 163.886C149.858 163.953 149.886 164.007 149.905 164.046C149.995 164.23 149.918 164.453 149.733 164.543C149.548 164.633 149.326 164.556 149.236 164.372L149.166 164.24C149.134 164.182 149.093 164.11 149.042 164.025C148.87 163.738 148.655 163.417 148.396 163.07C147.651 162.074 146.697 161.076 145.515 160.144C144.302 159.188 142.914 158.356 141.339 157.683C141.15 157.602 141.063 157.384 141.143 157.195Z" fill="#DD936F"/>
<path d="M144.885 156.799C144.96 156.608 145.176 156.513 145.367 156.588L145.543 156.661C145.592 156.683 145.649 156.708 145.713 156.736L145.813 156.782C146.159 156.941 146.544 157.134 146.958 157.362C148.14 158.013 149.322 158.815 150.426 159.774C151.274 160.511 152.042 161.313 152.712 162.184C152.837 162.347 152.807 162.581 152.644 162.706C152.481 162.831 152.248 162.801 152.122 162.638C151.484 161.808 150.75 161.041 149.938 160.336C148.876 159.414 147.737 158.641 146.599 158.014C146.281 157.839 145.981 157.685 145.704 157.553L145.502 157.458C145.305 157.368 145.167 157.309 145.096 157.281C144.904 157.206 144.81 156.99 144.885 156.799Z" fill="#DD936F"/>
<path d="M149.505 157.019C149.609 156.842 149.837 156.783 150.014 156.887C152.028 158.072 153.603 159.284 154.788 160.461C155.206 160.876 155.546 161.257 155.815 161.598L155.941 161.762C156.035 161.887 156.1 161.982 156.137 162.043C156.245 162.218 156.191 162.447 156.016 162.555C155.841 162.663 155.611 162.608 155.504 162.433L155.458 162.365C155.41 162.294 155.335 162.191 155.23 162.058C154.98 161.742 154.661 161.383 154.264 160.989C153.122 159.857 151.597 158.682 149.637 157.529C149.459 157.425 149.4 157.197 149.505 157.019Z" fill="#DD936F"/>
<path fill-rule="evenodd" clip-rule="evenodd" d="M135.631 239.736C148.57 246.866 156.228 237.624 156.228 237.624C156.228 237.624 167.318 237.271 169.43 229.173C177.176 228.118 179.492 218.48 174.475 210.294C178.901 202.804 170.729 195.994 170.729 195.994C174.475 186.801 168.347 178.288 163.239 173.861C157.451 150.368 144.172 153.433 144.172 153.433C138.809 146.282 127.573 153.943 120.763 163.477C120.763 163.477 111.144 165.605 113.868 174.883C108.761 178.288 112.166 183.055 112.166 183.055C112.166 183.055 100.419 194.716 107.058 204.165C98.887 212.167 105.356 216.082 105.356 216.082C105.356 216.082 103.227 223.998 115.23 227.318C113.442 234.213 126.75 242.961 135.631 239.736Z" fill="#253368"/>
<path fill-rule="evenodd" clip-rule="evenodd" d="M159.062 183.254C157.743 186.098 154.855 187.835 152.606 186.792C150.356 185.749 149.604 182.597 150.923 179.754C152.242 176.909 155.136 175.45 157.385 176.493C159.633 177.537 160.38 180.41 159.062 183.254Z" fill="#FFC999"/>
<path fill-rule="evenodd" clip-rule="evenodd" d="M122.073 183.731C123.393 186.575 126.28 188.312 128.529 187.268C130.778 186.225 131.531 183.073 130.211 180.23C128.893 177.386 125.999 175.927 123.749 176.97C121.501 178.014 120.754 180.887 122.073 183.731Z" fill="#FFC999"/>
<path fill-rule="evenodd" clip-rule="evenodd" d="M140.121 213.588C135.425 213.588 131.858 209.704 132.029 205.01L133.221 187.987L147.778 187.828L148.403 204.998C148.574 209.691 144.817 213.588 140.121 213.588Z" fill="#FFC999"/>
<path fill-rule="evenodd" clip-rule="evenodd" d="M154.98 179.816C154.3 189.801 149.362 199.734 140.169 198.968C133.298 198.395 125.797 189.681 125.797 179.672C125.797 165.692 131.078 159.831 139.233 159.386C148.595 158.876 155.948 165.578 154.98 179.816Z" fill="#FFC999"/>
<path d="M132.834 195.66C132.95 195.518 133.159 195.498 133.301 195.615C135.432 197.375 137.747 198.427 139.941 198.61C142.648 198.835 145.061 198.116 147.14 196.544C147.286 196.433 147.494 196.462 147.604 196.608C147.715 196.754 147.686 196.962 147.54 197.073C145.332 198.742 142.757 199.51 139.886 199.271C137.547 199.076 135.108 197.968 132.878 196.126C132.737 196.01 132.717 195.801 132.834 195.66Z" fill="#DD936F"/>
<path fill-rule="evenodd" clip-rule="evenodd" d="M151.917 205.614C162.25 211.061 168.169 197.739 167.495 192.079C166.218 181.354 160.514 175.054 160.514 175.054C154.131 155.648 143.831 154.455 133.786 157.094C119.731 160.787 114.001 178.068 121.188 179.822C132.014 182.462 134.533 173.196 136.17 166.883C137.361 162.287 141.089 163.141 142.469 166.032C142.898 166.932 143.948 167.63 145.533 165.692C147.065 163.819 148.938 165.521 149.279 171.82C149.628 178.294 151.887 175.803 153.024 178.8C154.897 183.737 147.917 185.44 150.13 194.633C150.13 194.633 142.387 200.588 151.917 205.614Z" fill="#253368"/>
<path d="M130.013 172.409C131.572 171.677 133.862 171.503 136.948 172.11C137.224 172.165 137.405 172.433 137.35 172.71C137.296 172.986 137.027 173.166 136.751 173.112C133.864 172.544 131.792 172.702 130.446 173.333C130.061 173.514 129.773 173.72 129.59 173.912L129.536 173.973L129.531 174.031C129.514 174.138 129.462 174.24 129.379 174.319L129.326 174.363C129.133 174.503 128.901 174.564 128.651 174.352C128.437 174.171 128.43 173.975 128.488 173.772C128.527 173.633 128.615 173.485 128.739 173.335C129.013 173.002 129.446 172.675 130.013 172.409Z" fill="#253368"/>
<path d="M134.048 176.156C135.599 176.161 136.782 177.762 136.777 179.673C136.776 179.955 136.547 180.182 136.265 180.182C135.983 180.181 135.755 179.952 135.756 179.67C135.76 178.268 134.956 177.18 134.045 177.177C133.134 177.174 132.322 178.257 132.318 179.658C132.317 179.94 132.087 180.167 131.805 180.166C131.524 180.166 131.296 179.936 131.297 179.654C131.303 177.745 132.497 176.152 134.048 176.156Z" fill="#253368"/>
<path d="M146.65 176.156C148.201 176.161 149.384 177.762 149.378 179.673C149.378 179.955 149.148 180.182 148.867 180.182C148.585 180.181 148.357 179.952 148.358 179.67C148.362 178.268 147.557 177.18 146.647 177.177C145.735 177.174 144.924 178.257 144.919 179.658C144.918 179.94 144.689 180.167 144.407 180.166C144.125 180.166 143.897 179.936 143.898 179.654C143.905 177.745 145.098 176.152 146.65 176.156Z" fill="#253368"/>
<path fill-rule="evenodd" clip-rule="evenodd" d="M157.018 176.889C157.018 176.889 155.697 183.93 154.465 184.459C155.119 181.685 154.238 173.757 153.936 173.368C153.456 172.745 156.929 171.96 157.018 176.889Z" fill="#253368"/>
<path fill-rule="evenodd" clip-rule="evenodd" d="M123.816 175.656C123.816 175.656 125.687 185.327 126.947 185.786C126.137 183.054 126.413 172.372 126.692 171.965C127.138 171.316 123.625 170.73 123.816 175.656Z" fill="#253368"/>
<path d="M143.226 172.626C143.376 172.432 143.656 172.396 143.85 172.546C144.027 172.683 144.072 172.926 143.966 173.115L143.93 173.17L142.242 175.354L142.657 184.219C142.668 184.452 142.499 184.649 142.275 184.68L142.213 184.685H139.148C138.902 184.685 138.703 184.486 138.703 184.24C138.703 184.015 138.87 183.829 139.088 183.799L139.148 183.795L141.746 183.795L141.346 175.232C141.342 175.147 141.362 175.064 141.403 174.991L141.438 174.939L143.226 172.626Z" fill="#DD936F"/>
<path fill-rule="evenodd" clip-rule="evenodd" d="M136.508 187.195H145.02C145.02 187.195 144.169 189.749 140.764 189.749C137.359 189.749 136.508 187.195 136.508 187.195Z" fill="white"/>
<path d="M145.023 186.711H136.511C136.179 186.711 135.944 187.037 136.049 187.352C136.177 187.738 136.479 188.281 137.018 188.82C137.906 189.707 139.146 190.239 140.767 190.239C142.388 190.239 143.629 189.707 144.517 188.82C145.055 188.281 145.357 187.738 145.485 187.352C145.59 187.037 145.356 186.711 145.023 186.711ZM144.204 187.685L144.097 187.829C144.015 187.931 143.926 188.032 143.827 188.131C143.119 188.839 142.126 189.265 140.767 189.265C139.409 189.265 138.415 188.839 137.707 188.13L137.566 187.981C137.521 187.931 137.478 187.88 137.437 187.829L137.329 187.685H144.204Z" fill="#F5222D"/>
<path d="M143.859 172.186C146.382 171.465 148.701 171.656 150.697 172.412C151.368 172.667 151.849 172.925 152.116 173.105C152.35 173.263 152.411 173.581 152.253 173.814C152.095 174.047 151.778 174.109 151.545 173.951L151.481 173.911C151.427 173.878 151.349 173.833 151.248 173.778C150.988 173.639 150.683 173.498 150.335 173.367C148.533 172.684 146.436 172.511 144.139 173.168C143.868 173.245 143.586 173.088 143.508 172.817C143.431 172.546 143.588 172.264 143.859 172.186Z" fill="#253368"/>
<path fill-rule="evenodd" clip-rule="evenodd" d="M126.48 502.8C122.275 502.899 118.743 499.661 118.478 495.465L112.789 405.694C112.38 399.228 117.43 393.718 123.908 393.566C130.387 393.413 135.692 398.679 135.586 405.158L134.128 495.096C134.06 499.301 130.683 502.701 126.48 502.8Z" fill="#FFC999"/>
<path fill-rule="evenodd" clip-rule="evenodd" d="M121.936 309.723C114.304 309.902 108.315 316.331 108.676 323.957L112.558 405.952C112.858 412.268 118.142 417.19 124.463 417.042C130.783 416.893 135.83 411.727 135.831 405.405L135.852 323.317C135.854 315.683 129.57 309.543 121.936 309.723Z" fill="#FFC999"/>
<path fill-rule="evenodd" clip-rule="evenodd" d="M118.658 507.036L133.427 507.226L134.561 483.876L117.605 483.656L118.658 507.036Z" fill="#3579DC"/>
<path d="M117.733 487.836L133.388 488.039C133.656 488.042 133.87 488.262 133.867 488.53C133.864 488.775 133.679 488.976 133.442 489.005L133.376 489.008L117.721 488.806C117.453 488.802 117.239 488.582 117.242 488.315C117.245 488.069 117.43 487.869 117.668 487.84L117.733 487.836Z" fill="#E4EBF7"/>
<path fill-rule="evenodd" clip-rule="evenodd" d="M117.195 506.094L133.434 506.304L133.868 536.06L97.2812 535.585L97.25 531.017C97.2453 529.338 98.4434 527.897 100.095 527.596L109.845 524.866L114.872 522.089C116.387 521.253 117.317 519.657 117.294 517.927C117.245 514.209 117.168 507.904 117.195 506.094Z" fill="#4E5C93"/>
<path fill-rule="evenodd" clip-rule="evenodd" d="M133.505 537.028L97.0281 536.554C96.6829 536.55 96.4065 536.266 96.4102 535.92L96.4631 531.83C96.4678 531.484 96.7517 531.207 97.0979 531.211L133.575 531.685C133.92 531.689 134.196 531.973 134.193 532.319L134.14 536.41C134.135 536.755 133.851 537.032 133.505 537.028Z" fill="#E4EBF7"/>
<path fill-rule="evenodd" clip-rule="evenodd" d="M97.0977 531.208C97.1307 528.63 99.0297 526.456 101.581 526.078L109.848 524.852L110.31 531.289L97.0977 531.208Z" fill="#E4EBF7"/>
<path d="M97.099 530.961L133.576 531.434C133.713 531.435 133.823 531.548 133.821 531.685C133.819 531.805 133.733 531.904 133.62 531.925L133.569 531.93L97.0926 531.457C96.9556 531.455 96.8459 531.343 96.8477 531.206C96.8493 531.086 96.9356 530.987 97.0489 530.965L97.099 530.961Z" fill="#A3B5D6"/>
<path d="M116.975 516.802C117.035 516.534 117.301 516.366 117.568 516.426L117.723 516.464C117.899 516.511 118.136 516.583 118.419 516.684C119.045 516.906 119.671 517.196 120.259 517.56C120.903 517.959 121.462 518.426 121.909 518.968C122.178 519.294 121.943 519.785 121.52 519.78C121.07 519.774 120.37 519.863 119.5 520.026C119.303 520.063 119.099 520.104 118.889 520.147L118.35 520.264L117.726 520.406L117.833 520.496C118.219 520.831 118.602 521.209 118.969 521.631L119.187 521.89C119.315 522.047 119.44 522.209 119.561 522.374C119.818 522.725 119.531 523.213 119.099 523.159C118.554 523.091 117.907 523.084 117.179 523.129C116.537 523.169 115.855 523.248 115.158 523.357L114.708 523.431L114.826 523.507C114.876 523.54 114.927 523.575 114.977 523.611L115.128 523.722C115.567 524.057 115.953 524.464 116.267 524.949C116.416 525.179 116.35 525.486 116.12 525.635C115.89 525.784 115.583 525.718 115.434 525.488C115.184 525.103 114.878 524.779 114.526 524.511C114.17 524.24 113.788 524.039 113.406 523.899L113.227 523.838C113.091 523.795 112.987 523.77 112.926 523.76C112.394 523.671 112.366 522.917 112.89 522.789L113.257 522.704L113.364 522.681C113.733 522.602 114.14 522.522 114.57 522.448C115.445 522.298 116.307 522.189 117.118 522.138C117.412 522.12 117.695 522.11 117.966 522.108L118.064 522.108L118.017 522.056C117.745 521.76 117.465 521.49 117.184 521.247L116.973 521.069C116.844 520.964 116.723 520.87 116.611 520.788L116.416 520.65C116.38 520.625 116.353 520.608 116.338 520.598C115.967 520.37 116.05 519.809 116.471 519.697L117.027 519.555C117.455 519.449 117.906 519.344 118.362 519.245C118.691 519.174 119.011 519.108 119.317 519.051C119.627 518.993 119.917 518.943 120.186 518.904L120.4 518.873L120.328 518.815C120.205 518.718 120.075 518.625 119.941 518.535L119.736 518.403C119.213 518.079 118.65 517.819 118.086 517.618C117.938 517.566 117.799 517.52 117.669 517.481L117.351 517.395C117.084 517.335 116.916 517.069 116.975 516.802Z" fill="#E4EBF7"/>
<path d="M117.518 512.047C117.462 512.047 117.405 512.056 117.352 512.075C116.432 512.396 116.158 513.072 116.545 513.755C116.713 514.051 116.964 514.3 117.222 514.498L117.346 514.589L117.602 514.813L117.902 515.068C118.06 515.2 118.228 515.34 118.405 515.487C119.25 516.183 120.136 516.879 121.022 517.53C121.545 517.915 122.054 518.272 122.543 518.597C124.186 519.689 125.531 520.371 126.526 520.535C127.957 520.771 128.708 519.913 128.445 518.202C128.036 515.534 125.952 513.818 122.806 512.856C121.705 512.52 120.538 512.298 119.366 512.168C119.046 512.132 118.738 512.105 118.447 512.085L118.162 512.068C118.01 512.06 117.875 512.055 117.759 512.051L117.518 512.047ZM117.543 513.06L117.597 513.04L117.81 513.045C118.191 513.058 118.685 513.091 119.256 513.154C120.371 513.278 121.479 513.489 122.516 513.805C125.337 514.667 127.125 516.14 127.464 518.352L127.495 518.578C127.595 519.464 127.36 519.667 126.687 519.556C125.872 519.422 124.624 518.789 123.092 517.771C122.617 517.454 122.121 517.106 121.609 516.73C120.739 516.092 119.868 515.406 119.036 514.721L118.542 514.309L117.958 513.81L117.905 513.769C117.723 513.64 117.509 513.443 117.409 513.266L117.378 513.208C117.349 513.143 117.376 513.12 117.543 513.06Z" fill="#E4EBF7"/>
<path fill-rule="evenodd" clip-rule="evenodd" d="M180.505 501.495C184.679 500.978 187.7 498.201 187.349 494.011L179.855 403.43C179.314 396.973 173.512 392.261 167.081 393.056C160.651 393.853 156.172 399.837 157.223 406.231L172.756 495.933C173.438 500.083 176.331 502.011 180.505 501.495Z" fill="#FFC999"/>
<path fill-rule="evenodd" clip-rule="evenodd" d="M156.779 309.823C164.356 308.885 171.22 314.369 171.976 321.967L180.121 403.648C180.749 409.939 176.241 415.581 169.966 416.359C163.692 417.135 157.944 412.763 157.018 406.508L145 325.307C143.882 317.753 149.202 310.761 156.779 309.823Z" fill="#FFC999"/>
<path fill-rule="evenodd" clip-rule="evenodd" d="M189.481 504.091L173.771 504.423L169.605 481.084L186.559 480.703L189.481 504.091Z" fill="#3579DC"/>
<path d="M186.451 484.883C186.718 484.877 186.94 485.089 186.946 485.357C186.952 485.602 186.774 485.809 186.538 485.847L186.472 485.852L170.82 486.204C170.552 486.21 170.33 485.998 170.324 485.73C170.319 485.485 170.497 485.278 170.733 485.241L170.798 485.235L186.451 484.883Z" fill="#E4EBF7"/>
<path fill-rule="evenodd" clip-rule="evenodd" d="M189.707 503.133L173.473 503.498L176.434 533.256L213.015 532.434L213.002 527.866C212.993 526.187 211.78 524.756 210.126 524.472L200.35 521.834L195.297 519.106C193.775 518.284 192.437 516.61 191.891 514.967C190.883 511.931 189.752 504.943 189.707 503.133Z" fill="#4E5C93"/>
<path fill-rule="evenodd" clip-rule="evenodd" d="M176.807 534.217L213.278 533.396C213.623 533.389 213.897 533.102 213.89 532.757L213.798 528.666C213.79 528.321 213.502 528.046 213.157 528.055L176.687 528.875C176.341 528.882 176.067 529.169 176.074 529.515L176.166 533.605C176.175 533.951 176.461 534.224 176.807 534.217Z" fill="#E4EBF7"/>
<path fill-rule="evenodd" clip-rule="evenodd" d="M213.157 528.055C213.099 525.478 211.179 523.322 208.625 522.967L200.347 521.82L199.945 528.262L213.157 528.055Z" fill="#E4EBF7"/>
<path d="M213.154 527.813C213.291 527.809 213.405 527.918 213.408 528.055C213.411 528.175 213.328 528.277 213.215 528.302L213.165 528.309L176.695 529.128C176.558 529.131 176.445 529.023 176.441 528.886C176.439 528.766 176.522 528.664 176.634 528.639L176.684 528.632L213.154 527.813Z" fill="#A3B5D6"/>
<path d="M192.548 513.466C192.815 513.404 193.082 513.569 193.145 513.836C193.202 514.081 193.068 514.326 192.839 514.413L192.584 514.484C192.423 514.531 192.242 514.59 192.047 514.661C191.489 514.866 190.931 515.129 190.414 515.455C190.204 515.588 190.006 515.728 189.82 515.875L189.74 515.941L189.758 515.943C190.017 515.976 190.298 516.018 190.599 516.069L190.828 516.109C191.143 516.165 191.471 516.229 191.809 516.299C192.11 516.361 192.408 516.427 192.699 516.493L193.627 516.714C193.645 516.719 193.662 516.723 193.677 516.727C194.075 516.829 194.176 517.334 193.876 517.586L193.657 517.739C193.518 517.838 193.362 517.959 193.194 518.099C192.848 518.387 192.502 518.717 192.167 519.086L192.107 519.153L192.21 519.153C192.392 519.152 192.58 519.155 192.772 519.162L193.064 519.175C193.888 519.219 194.765 519.323 195.654 519.468C195.969 519.52 196.27 519.574 196.552 519.629L197.024 519.726C197.141 519.751 197.23 519.771 197.287 519.784C197.788 519.902 197.792 520.594 197.329 520.739L197.169 520.776C197.076 520.799 196.946 520.838 196.787 520.898C196.41 521.039 196.032 521.241 195.681 521.511C195.327 521.785 195.019 522.115 194.769 522.508C194.622 522.74 194.316 522.808 194.084 522.662C193.853 522.515 193.784 522.208 193.931 521.977C194.245 521.483 194.632 521.068 195.075 520.726C195.175 520.649 195.274 520.577 195.373 520.511L195.475 520.445L195.067 520.381C194.5 520.297 193.943 520.232 193.408 520.192L193.011 520.166C192.279 520.127 191.628 520.141 191.081 520.215C190.65 520.272 190.359 519.787 190.612 519.434C190.737 519.26 190.866 519.09 190.999 518.925C191.424 518.398 191.875 517.933 192.331 517.532L192.427 517.449L192.047 517.364L191.608 517.271C191.278 517.202 190.959 517.14 190.654 517.086L190.264 517.019C189.572 516.907 189.011 516.85 188.63 516.859C188.207 516.868 187.967 516.379 188.232 516.051C188.678 515.499 189.238 515.024 189.885 514.616C190.466 514.249 191.086 513.957 191.706 513.73L191.97 513.637C192.219 513.553 192.417 513.497 192.548 513.466Z" fill="#E4EBF7"/>
<path d="M192.556 509.086L192.303 509.093C191.919 509.107 191.409 509.143 190.808 509.213C189.639 509.348 188.469 509.576 187.363 509.918C184.177 510.903 182.074 512.646 181.687 515.344C181.441 517.055 182.196 517.907 183.621 517.661C184.612 517.49 185.948 516.799 187.577 515.695C188.064 515.365 188.57 515.002 189.091 514.612C189.973 513.952 190.856 513.245 191.697 512.538L192.198 512.113L192.794 511.593C192.865 511.548 193.028 511.416 193.193 511.245C193.465 510.964 193.65 510.674 193.696 510.349C193.776 509.786 193.413 509.346 192.721 509.112C192.668 509.094 192.612 509.085 192.556 509.086ZM192.478 510.08C192.584 510.121 192.652 510.16 192.691 510.193L192.712 510.214C192.703 510.279 192.62 510.411 192.48 510.555C192.365 510.673 192.248 510.768 192.178 510.817L191.551 511.36C191.397 511.493 191.232 511.632 191.058 511.779C190.231 512.474 189.362 513.17 188.496 513.818C187.987 514.199 187.493 514.553 187.02 514.873C185.502 515.902 184.263 516.543 183.453 516.683C182.731 516.808 182.514 516.563 182.669 515.486C182.99 513.247 184.797 511.75 187.656 510.866C188.698 510.544 189.81 510.328 190.923 510.198L191.326 510.155C191.711 510.118 192.045 510.096 192.311 510.085L192.478 510.08Z" fill="#E4EBF7"/>
<path fill-rule="evenodd" clip-rule="evenodd" d="M158.768 280.854C163.237 280.975 168.584 294.159 175.433 305.569C184.351 320.426 194.829 335.378 199.161 346.296C198.141 350.183 189.246 359.754 189.246 359.754C189.246 359.754 190.959 363.206 191.37 365.066C181.454 378.169 167.684 379.756 167.684 379.756L167.653 382.415C145.114 392.793 114.931 382.847 114.931 382.847C114.931 382.847 114.368 382.27 114.771 380.185C104.538 380.066 82.6244 367.083 82.6244 367.083L85.7394 360.658L76.7266 351.434C76.7266 351.434 104.605 311.504 109.562 297.777C114.166 285.028 121.302 279.977 121.302 279.977C121.302 279.977 143.571 280.442 158.768 280.854Z" fill="#4E5C93"/>
<path d="M119.865 290.549C119.957 290.36 120.185 290.282 120.373 290.375C120.543 290.458 120.623 290.65 120.57 290.825L120.547 290.883L83.4873 366.592L83.8343 366.847L84.1243 367.055C84.8563 367.574 85.7192 368.154 86.7074 368.778C89.5335 370.564 92.7951 372.351 96.448 374.018C102.127 376.611 108.221 378.671 114.656 380.001C114.861 380.043 114.993 380.244 114.951 380.449C114.909 380.655 114.708 380.787 114.502 380.744C108.009 379.403 101.861 377.325 96.1326 374.709C92.4473 373.027 89.1558 371.224 86.3017 369.42C85.4129 368.859 84.6234 368.332 83.9372 367.852L83.6848 367.674C83.4763 367.526 83.2901 367.391 83.1266 367.27L82.7747 367.005C82.6511 366.909 82.6014 366.748 82.6438 366.601L82.6676 366.539L119.865 290.549Z" fill="#253368"/>
<path d="M169.983 312.3C170.158 312.231 170.355 312.301 170.448 312.458L170.476 312.513L191.37 365.282C191.418 365.403 191.401 365.54 191.324 365.645L191.193 365.819L191.019 366.041C190.988 366.081 190.955 366.122 190.921 366.164L190.815 366.295C190.4 366.805 189.906 367.372 189.336 367.983C187.71 369.725 185.797 371.466 183.609 373.092C178.935 376.565 173.665 379.028 167.847 380.037C167.64 380.073 167.444 379.934 167.408 379.728C167.372 379.521 167.511 379.325 167.717 379.289C173.409 378.302 178.572 375.889 183.156 372.482C185.305 370.886 187.184 369.175 188.781 367.464C189.339 366.867 189.821 366.312 190.227 365.815L190.424 365.57L190.585 365.363L169.77 312.793C169.7 312.618 169.77 312.421 169.927 312.328L169.983 312.3Z" fill="#253368"/>
<path d="M149.025 282.297C149.231 282.255 149.431 282.389 149.472 282.594L150.397 287.254C151.133 290.975 151.953 295.149 152.836 299.677L153.916 305.236C155.896 315.447 157.86 325.748 159.729 335.759L160.771 341.368C161.036 342.801 161.297 344.22 161.555 345.624L162.584 351.265C164.785 363.394 166.624 374.008 168.022 382.734C168.051 382.917 167.945 383.094 167.769 383.154C166.663 383.53 165.543 383.878 164.411 384.198C150.761 388.063 136.2 387.844 122.45 385.157L121.458 384.958C119.83 384.623 118.332 384.273 116.977 383.922L116.575 383.816C116.144 383.702 115.75 383.593 115.395 383.492L114.685 383.283C114.572 383.248 114.487 383.222 114.432 383.204C114.268 383.151 114.163 382.997 114.168 382.831L114.176 382.768L131.171 297.591C131.212 297.385 131.412 297.252 131.618 297.293C131.803 297.33 131.93 297.496 131.923 297.678L131.916 297.74L114.987 382.581L115.604 382.762C115.954 382.862 116.343 382.969 116.77 383.082C118.478 383.535 120.43 383.988 122.595 384.411C136.239 387.078 150.686 387.295 164.204 383.468C165.044 383.23 165.877 382.977 166.702 382.708L167.221 382.535L166.793 379.896C165.469 371.796 163.804 362.242 161.854 351.495L160.808 345.761L160.288 342.934C160.025 341.511 159.759 340.073 159.489 338.621C157.303 326.857 154.972 314.642 152.631 302.599L150.888 293.676L148.727 282.743C148.686 282.538 148.82 282.338 149.025 282.297Z" fill="#253368"/>
<path d="M141.8 282.883C141.989 282.888 142.142 283.029 142.167 283.21L142.17 283.272L140.4 356.227C140.395 356.436 140.221 356.602 140.011 356.597C139.822 356.592 139.669 356.451 139.644 356.27L139.641 356.208L141.411 283.253C141.416 283.044 141.59 282.878 141.8 282.883Z" fill="#253368"/>
<path d="M129.354 282.197C129.416 281.997 129.629 281.885 129.829 281.947C130.009 282.003 130.118 282.181 130.092 282.362L130.079 282.422L115.082 330.703C115.02 330.904 114.807 331.015 114.607 330.953C114.427 330.897 114.318 330.719 114.344 330.538L114.357 330.478L129.354 282.197Z" fill="#253368"/>
<path fill-rule="evenodd" clip-rule="evenodd" d="M119.672 280.855L120.315 275.973C120.315 275.973 139.594 276.088 158.501 275.141C158.979 277.308 159.528 281.208 159.528 281.208C157.938 279.903 140.764 283.716 119.672 280.855Z" fill="#4E5C93"/>
<path d="M157.496 280.829C157.705 280.819 157.883 280.981 157.893 281.19C157.902 281.4 157.741 281.577 157.531 281.587L155.569 281.675C147.416 282.027 139.541 282.178 132.526 282.164L130.451 282.155C128.291 282.139 126.355 282.108 124.784 282.064L123.57 282.026C123.033 282.007 122.591 281.986 122.267 281.966L121.907 281.94C121.859 281.936 121.818 281.931 121.783 281.927C121.715 281.919 121.666 281.911 121.622 281.898L121.593 281.894C121.557 281.886 121.526 281.853 121.371 281.687L121.428 281.376C121.471 281.173 121.498 281.17 121.6 281.16C121.679 281.133 121.761 281.133 121.835 281.156L121.88 281.174L122.128 281.196L122.574 281.223C122.808 281.235 123.087 281.248 123.404 281.26L124.236 281.289C126.167 281.349 128.76 281.39 131.692 281.402L133.372 281.405C140.726 281.406 148.986 281.227 157.496 280.829Z" fill="#253368"/>
<path fill-rule="evenodd" clip-rule="evenodd" d="M101.566 278.575C96.9157 277.425 94.079 272.723 95.228 268.072L106.436 222.75C107.586 218.1 112.289 215.262 116.939 216.412C121.591 217.563 124.428 222.265 123.279 226.915L112.071 272.237C110.92 276.888 106.218 279.725 101.566 278.575Z" fill="#FFC999"/>
<path fill-rule="evenodd" clip-rule="evenodd" d="M118.527 246.125L123.279 226.913C124.424 222.281 121.572 217.555 116.939 216.409C112.308 215.264 107.581 218.116 106.437 222.748L101.73 241.778L118.527 246.125Z" fill="#3579DC"/>
<path d="M117.257 216.181C121.984 217.35 124.92 222.124 123.861 226.853L123.815 227.047L119.064 246.26C119.028 246.404 118.894 246.497 118.751 246.487L118.697 246.478L101.901 242.131C101.74 242.09 101.644 241.926 101.685 241.766C101.722 241.623 101.856 241.531 101.998 241.541L102.051 241.55L118.554 245.821L123.233 226.903C124.323 222.497 121.662 217.999 117.303 216.813L117.113 216.763C116.952 216.723 116.854 216.561 116.893 216.4C116.929 216.257 117.061 216.164 117.203 216.172L117.257 216.181Z" fill="#4E5C93"/>
<path fill-rule="evenodd" clip-rule="evenodd" d="M208.742 201.79L209.063 202.422C211.315 206.867 209.537 212.295 205.092 214.548L164.067 235.337C159.622 237.588 154.193 235.811 151.94 231.366L151.621 230.734C149.369 226.29 151.145 220.861 155.59 218.609L196.616 197.82C201.06 195.567 206.489 197.346 208.742 201.79Z" fill="#FFC999"/>
<path fill-rule="evenodd" clip-rule="evenodd" d="M172.936 209.82L155.282 218.765C151.025 220.923 149.45 226.451 151.782 231.051C154.113 235.65 159.503 237.649 163.758 235.494L181.245 226.633L172.936 209.82Z" fill="#3579DC"/>
<path d="M172.672 209.299C172.809 209.23 172.974 209.272 173.063 209.391L173.092 209.439L181.401 226.252C181.478 226.406 181.414 226.593 181.26 226.67C181.123 226.737 180.96 226.695 180.872 226.576L180.842 226.528L172.672 209.998L155.301 218.801C151.261 220.848 149.726 226.064 151.843 230.476L151.938 230.667C152.016 230.82 151.954 231.008 151.801 231.086C151.647 231.164 151.459 231.102 151.382 230.949C149.008 226.264 150.561 220.636 154.841 218.338L155.019 218.245L172.672 209.299Z" fill="#4E5C93"/>
<path fill-rule="evenodd" clip-rule="evenodd" d="M162.328 214.996C158.078 212.606 153.06 214.918 150.6 212.707C149.145 211.399 148.644 205.211 148.644 205.211H130.5C130.5 205.211 129.998 211.399 128.544 212.707C126.084 214.918 119.612 213.577 112.833 217.249C106.434 220.716 110.274 230.239 113.204 238.112C113.881 239.933 112.712 243.363 113.844 245.894C114.983 248.441 116.714 251.525 117.401 253.173C119.657 258.587 119.193 264.42 120.649 269.332C120.649 269.332 118.33 273.819 121.991 275.639H157.153C161.543 273.636 158.495 269.332 158.495 269.332C159.884 264.644 159.041 260.863 161.1 253.997C161.512 252.624 163.061 250.448 164.382 247.542C166.441 243.01 166.031 238.662 165.756 237.563C163.125 227.082 168.425 218.426 162.328 214.996Z" fill="#3579DC"/>
<path d="M133.533 213.281L145.56 213.378C145.725 213.38 145.859 213.515 145.857 213.681C145.856 213.828 145.749 213.95 145.609 213.974L145.555 213.978L133.528 213.881C133.362 213.88 133.229 213.744 133.23 213.579C133.232 213.432 133.339 213.31 133.479 213.286L133.533 213.281Z" fill="#4E5C93"/>
<path d="M116.045 227.367C116.117 227.217 116.296 227.153 116.445 227.224C116.595 227.296 116.658 227.474 116.587 227.624L116.501 227.814L116.348 228.169C116.285 228.319 116.219 228.481 116.149 228.656C115.818 229.492 115.486 230.439 115.177 231.479C114.055 235.245 113.513 239.173 113.868 242.986C114.146 245.968 115.106 248.397 117.417 252.233L117.794 252.85L117.834 252.956L118.3 255.575C118.501 256.698 118.704 257.821 118.904 258.919L119.594 262.649C120.224 266.004 120.694 268.336 120.939 269.258C120.959 269.334 120.949 269.414 120.911 269.482C119.546 271.911 120.539 275.01 121.914 275.328L121.992 275.343L157.193 275.342L157.283 275.288C157.296 275.279 157.309 275.27 157.324 275.261L157.391 275.214C157.595 275.07 157.799 274.888 157.99 274.668C158.998 273.507 159.242 271.817 158.219 269.455C158.195 269.399 158.188 269.338 158.199 269.279L158.46 267.915C159.183 264.095 159.794 260.629 160.296 257.564L160.595 255.704C160.649 255.36 160.699 255.033 160.747 254.723L160.953 253.332L161.004 253.203C163.953 248.929 165.25 245.543 165.456 241.762C165.643 238.315 165.013 234.889 163.848 231.664C163.489 230.672 163.105 229.772 162.72 228.983L162.564 228.669C162.514 228.57 162.466 228.476 162.419 228.388L162.253 228.083C162.237 228.053 162.223 228.03 162.214 228.014C162.13 227.871 162.177 227.687 162.32 227.603C162.463 227.519 162.647 227.566 162.731 227.709L162.839 227.902L162.879 227.975C162.994 228.188 163.122 228.437 163.26 228.721C163.653 229.528 164.046 230.447 164.412 231.46C165.603 234.755 166.247 238.259 166.055 241.794C165.848 245.597 164.572 249.01 161.72 253.219L161.537 253.485L161.386 254.509L161.24 255.458C161.136 256.125 161.019 256.86 160.888 257.661L160.706 258.761C160.209 261.739 159.615 265.066 158.92 268.706L158.805 269.302L158.859 269.429C159.838 271.825 159.587 273.654 158.538 274.948L158.444 275.061C158.097 275.461 157.748 275.724 157.485 275.868L157.4 275.912L157.269 275.943L121.947 275.939C120.061 275.656 118.852 272.123 120.309 269.334L120.329 269.296L120.209 268.795C119.95 267.668 119.558 265.699 119.062 263.067L118.759 261.448C118.516 260.137 118.264 258.76 118.012 257.363L117.252 253.116L117.088 252.848C114.664 248.868 113.62 246.341 113.295 243.284L113.271 243.041C112.908 239.143 113.46 235.142 114.602 231.308C114.917 230.251 115.254 229.287 115.592 228.435L115.729 228.094C115.774 227.986 115.817 227.884 115.858 227.787L116.008 227.447C116.023 227.413 116.036 227.386 116.045 227.367Z" fill="#4E5C93"/>
<path d="M160.54 244.125C160.706 244.125 160.84 244.259 160.84 244.425C160.84 244.572 160.734 244.695 160.594 244.72L160.54 244.725H117.144C116.978 244.725 116.844 244.591 116.844 244.425C116.844 244.278 116.95 244.155 117.09 244.13L117.144 244.125H160.54Z" fill="#4E5C93"/>
<path d="M128.176 212.489C128.331 212.382 128.539 212.406 128.665 212.538L128.705 212.586L139.415 228.078L150.607 212.851C150.719 212.699 150.923 212.655 151.086 212.738L151.139 212.77C151.291 212.882 151.336 213.086 151.253 213.249L151.22 213.302L139.712 228.958C139.57 229.151 139.293 229.163 139.133 228.998L139.093 228.949L128.079 213.018C127.96 212.846 128.003 212.609 128.176 212.489Z" fill="#E4EBF7"/>
<path fill-rule="evenodd" clip-rule="evenodd" d="M145.584 234.387C145.584 237.876 142.755 240.704 139.267 240.704C135.777 240.704 132.949 237.876 132.949 234.387C132.949 230.898 135.777 228.07 139.267 228.07C142.755 228.07 145.584 230.898 145.584 234.387Z" fill="#E4EBF7"/>
<path fill-rule="evenodd" clip-rule="evenodd" d="M143.829 234.389C143.829 236.908 141.787 238.95 139.268 238.95C136.748 238.95 134.707 236.908 134.707 234.389C134.707 231.87 136.748 229.828 139.268 229.828C141.787 229.828 143.829 231.87 143.829 234.389Z" fill="#FAAD14"/>
<path fill-rule="evenodd" clip-rule="evenodd" d="M134.117 351.908L80.5604 339.565C78.7671 339.152 77.6492 337.364 78.0624 335.572L86.8262 297.544C87.2394 295.751 89.0271 294.634 90.8195 295.047L144.377 307.39C146.168 307.802 147.287 309.591 146.874 311.383L138.11 349.411C137.697 351.202 135.909 352.32 134.117 351.908Z" fill="#3579DC"/>
<path fill-rule="evenodd" clip-rule="evenodd" d="M133.586 353.767L80.0289 341.425C78.2356 341.012 77.1186 339.223 77.5309 337.431L86.2947 299.404C86.7079 297.612 88.4955 296.493 90.2889 296.906L143.845 309.249C145.638 309.662 146.756 311.45 146.342 313.242L137.579 351.27C137.166 353.061 135.378 354.18 133.586 353.767Z" fill="#253368"/>
<path fill-rule="evenodd" clip-rule="evenodd" d="M104.312 326.598C101.64 326.689 99.3703 324.663 99.1581 321.999L95.0601 270.573C94.8403 265.836 98.5345 261.831 103.275 261.669C108.058 261.507 112.035 265.316 112.077 270.101L109.131 321.886C108.985 324.467 106.895 326.51 104.312 326.598Z" fill="#FFC999"/>
<path fill-rule="evenodd" clip-rule="evenodd" d="M97.5217 332.133C97.5217 332.133 96.4887 319.307 100.709 315.843C104.531 312.704 109.199 318.206 109.199 318.206C109.199 318.206 110.98 321.155 113.105 325.759C114.64 329.084 116.999 336.383 114.698 335.852C112.232 335.283 111.968 330.18 110.271 330.894C108.529 331.627 109.484 334.75 109.564 338.685C109.613 341.144 110.627 341.019 110.271 343.112C109.577 347.204 100.134 346.351 97.5217 332.133Z" fill="#FFC999"/>
<path d="M106.275 334.071C106.476 334.113 106.604 334.311 106.562 334.512L106.547 334.593C106.538 334.644 106.528 334.712 106.518 334.795L106.508 334.884C106.237 337.291 106.738 340.5 108.652 344.18C108.747 344.362 108.676 344.587 108.494 344.681C108.312 344.776 108.087 344.705 107.992 344.523C106.006 340.705 105.482 337.348 105.768 334.801L105.792 334.61C105.807 334.497 105.822 334.412 105.834 334.357C105.872 334.176 106.036 334.054 106.215 334.063L106.275 334.071Z" fill="#DD936F"/>
<path d="M103.034 333.884C103.239 333.897 103.394 334.075 103.38 334.28C103.221 336.663 103.695 339.232 104.585 341.782C104.855 342.558 105.145 343.274 105.435 343.913C105.511 344.081 105.582 344.233 105.649 344.371L105.816 344.705C105.913 344.886 105.845 345.112 105.663 345.208C105.482 345.305 105.257 345.237 105.16 345.055L105.047 344.834C104.959 344.657 104.862 344.452 104.757 344.221C104.458 343.562 104.16 342.826 103.882 342.027C102.962 339.391 102.471 336.728 102.638 334.23C102.651 334.025 102.829 333.87 103.034 333.884Z" fill="#DD936F"/>
<path d="M100.001 333.18C100.207 333.18 100.373 333.346 100.373 333.552L100.378 333.796C100.381 333.877 100.385 333.973 100.391 334.083C100.413 334.512 100.453 334.991 100.516 335.507C100.695 336.982 101.016 338.455 101.515 339.826C101.781 340.558 102.092 341.241 102.45 341.867C102.552 342.045 102.49 342.273 102.311 342.375C102.133 342.477 101.905 342.415 101.803 342.236C101.424 341.572 101.096 340.85 100.816 340.08C100.296 338.651 99.9622 337.124 99.7771 335.597C99.7124 335.063 99.6708 334.567 99.6476 334.121L99.6319 333.736C99.6298 333.659 99.6289 333.597 99.6289 333.552C99.6289 333.346 99.7955 333.18 100.001 333.18Z" fill="#DD936F"/>
</svg>
