<svg width="11" height="9" viewBox="0 0 11 9" fill="none" xmlns="http://www.w3.org/2000/svg">
<path d="M10.7852 3.47852C10.291 3.86523 9.66797 4.33789 7.47656 5.92773C7.04688 6.25 6.25195 6.95898 5.5 6.95898C4.72656 6.95898 3.95312 6.25 3.50195 5.92773C1.31055 4.33789 0.6875 3.86523 0.193359 3.47852C0.107422 3.41406 0 3.47852 0 3.58594V7.96875C0 8.54883 0.451172 9 1.03125 9H9.96875C10.5273 9 11 8.54883 11 7.96875V3.58594C11 3.47852 10.8711 3.41406 10.7852 3.47852ZM5.5 6.25C5.99414 6.27148 6.70312 5.62695 7.06836 5.36914C9.92578 3.30664 10.1406 3.11328 10.7852 2.59766C10.9141 2.51172 11 2.36133 11 2.18945V1.78125C11 1.22266 10.5273 0.75 9.96875 0.75H1.03125C0.451172 0.75 0 1.22266 0 1.78125V2.18945C0 2.36133 0.0644531 2.51172 0.193359 2.59766C0.837891 3.11328 1.05273 3.30664 3.91016 5.36914C4.27539 5.62695 4.98438 6.27148 5.5 6.25Z" fill="#7C8487"/>
</svg>
