<svg width="11" height="12" viewBox="0 0 11 12" fill="none" xmlns="http://www.w3.org/2000/svg">
<path d="M11 10.3438V4.69336C11 4.41406 10.8066 4.04883 10.5918 3.87695C10.0547 3.46875 9.625 3.125 7.06836 1.27734C6.70312 1.01953 5.99414 0.375 5.5 0.396484C4.98438 0.375 4.27539 1.01953 3.91016 1.27734C1.35352 3.125 0.923828 3.46875 0.386719 3.87695C0.171875 4.04883 0 4.41406 0 4.69336V10.3438C0 10.9238 0.451172 11.375 1.03125 11.375H9.96875C10.5273 11.375 11 10.9238 11 10.3438ZM9.58203 6.13281L9.77539 6.41211C9.79688 6.43359 9.79688 6.47656 9.79688 6.51953C9.79688 6.5625 9.77539 6.62695 9.73242 6.64844C9.23828 7.01367 8.55078 7.5293 7.47656 8.30273C7.02539 8.625 6.25195 9.33398 5.5 9.3125C4.72656 9.33398 3.95312 8.625 3.50195 8.30273C2.42773 7.5293 1.74023 7.01367 1.24609 6.64844C1.20312 6.62695 1.18164 6.5625 1.18164 6.51953C1.18164 6.47656 1.18164 6.43359 1.20312 6.41211L1.39648 6.13281C1.46094 6.04688 1.56836 6.02539 1.6543 6.08984C2.12695 6.45508 2.83594 6.9707 3.91016 7.74414C4.27539 8.00195 4.98438 8.64648 5.5 8.625C5.99414 8.64648 6.70312 8.00195 7.06836 7.74414C8.14258 6.9707 8.85156 6.45508 9.32422 6.08984C9.41016 6.02539 9.51758 6.04688 9.58203 6.13281Z" fill="white"/>
</svg>
